<?xml version="1.0" standalone="no"?>
<!DOCTYPE svg PUBLIC "-//W3C//DTD SVG 20010904//EN"
 "http://www.w3.org/TR/2001/REC-SVG-20010904/DTD/svg10.dtd">
<svg version="1.0" xmlns="http://www.w3.org/2000/svg"
 width="1000.000000pt" height="1000.000000pt" viewBox="0 0 1000.000000 1000.000000"
 preserveAspectRatio="xMidYMid meet">
<metadata>
Created by potrace 1.11, written by Peter Selinger 2001-2013
</metadata>
<g transform="translate(0.000000,1000.000000) scale(0.100000,-0.100000)"
fill="#000000" stroke="none">
<path d="M2167 8440 c-31 -3 -56 -7 -55 -10 1 -4 -17 -128 -28 -185 -2 -10 -6
-37 -10 -60 -3 -22 -21 -132 -40 -245 -20 -113 -37 -216 -39 -230 -4 -29 -6
-39 -40 -235 -14 -82 -28 -163 -31 -180 -2 -16 -15 -91 -29 -165 -13 -74 -26
-148 -29 -165 -11 -68 -48 -277 -66 -370 -20 -107 -23 -124 -46 -255 -18 -105
-22 -128 -29 -160 -7 -38 -53 -290 -60 -330 -3 -19 -8 -42 -10 -50 -2 -8 -6
-28 -9 -45 -3 -16 -8 -46 -11 -65 -3 -19 -12 -66 -20 -105 -15 -74 -16 -82
-35 -185 -6 -36 -20 -110 -31 -165 -11 -55 -22 -113 -25 -130 -2 -16 -11 -64
-19 -105 -8 -41 -17 -86 -19 -100 -18 -97 -31 -163 -56 -290 -16 -80 -31 -158
-34 -175 -9 -53 -66 -348 -81 -420 -8 -38 -17 -85 -20 -104 -3 -19 -8 -37 -10
-40 -2 -4 -6 -27 -10 -51 -4 -25 -18 -99 -31 -165 -14 -66 -27 -133 -30 -150
-2 -16 -14 -75 -25 -130 -12 -55 -23 -111 -26 -125 -12 -65 -194 -967 -198
-980 -2 -8 -7 -33 -11 -55 -5 -34 -20 -108 -40 -200 -2 -11 -7 -33 -10 -50 -3
-16 -16 -82 -29 -145 -13 -63 -26 -126 -29 -140 -2 -14 -10 -49 -16 -78 -7
-29 -10 -55 -8 -57 2 -2 28 2 58 10 106 28 208 33 530 30 332 -4 368 -6 455
-29 l50 -13 1 61 c2 85 14 378 19 451 4 57 7 94 20 295 9 126 14 198 20 260 2
30 7 89 11 130 3 41 8 93 10 115 6 67 16 178 19 215 1 19 6 69 10 110 4 41 9
86 10 100 6 61 17 177 20 200 1 14 6 59 10 100 3 41 8 86 10 100 2 14 7 52 10
85 3 33 8 76 10 95 11 97 17 148 21 180 8 80 14 137 19 175 3 22 8 63 11 90 2
28 6 60 9 73 2 13 7 53 10 90 4 37 8 74 10 82 3 8 7 40 10 70 5 52 21 179 30
245 2 17 7 57 10 90 4 33 8 67 10 75 2 8 7 41 10 73 4 32 8 66 10 76 2 10 6
42 10 72 3 30 8 65 10 79 2 14 7 45 10 70 3 25 8 56 10 70 7 53 15 107 20 150
3 25 12 88 20 140 8 52 16 111 19 130 3 19 12 78 20 130 8 52 18 113 21 135 8
59 16 107 20 130 2 11 4 28 4 38 2 40 21 10 71 -110 29 -71 58 -141 65 -158
37 -84 207 -503 415 -1025 113 -283 350 -902 532 -1390 28 -74 61 -162 73
-195 13 -33 47 -125 75 -205 56 -159 90 -251 127 -349 14 -35 31 -83 38 -105
7 -23 52 -151 100 -286 86 -242 230 -655 285 -820 l28 -85 344 -3 344 -2 38
92 c48 117 162 390 186 443 20 47 18 42 145 335 54 124 111 254 127 290 17 36
47 103 68 150 42 96 36 82 198 435 66 143 152 327 191 409 39 82 71 150 71
151 0 1 45 96 101 211 55 115 123 256 151 314 178 372 978 1953 985 1947 3 -4
7 -36 18 -147 4 -36 8 -72 10 -80 1 -8 6 -51 9 -95 4 -44 9 -87 11 -95 2 -8 7
-46 10 -85 3 -38 8 -90 11 -115 2 -25 6 -66 9 -92 3 -27 7 -69 10 -95 3 -27 7
-70 10 -98 2 -27 6 -66 9 -85 3 -19 8 -71 11 -115 4 -44 8 -93 10 -110 6 -50
15 -137 20 -200 2 -33 7 -78 10 -100 4 -39 12 -114 19 -205 3 -25 7 -70 10
-100 3 -30 8 -86 11 -125 3 -38 8 -86 10 -105 2 -19 7 -71 10 -115 3 -44 8
-91 10 -105 2 -14 6 -63 10 -110 4 -47 8 -101 10 -120 2 -19 6 -70 9 -112 4
-43 8 -95 11 -115 2 -21 7 -74 10 -118 8 -104 14 -178 20 -240 2 -27 7 -86 11
-130 3 -44 8 -98 9 -120 9 -103 18 -213 20 -245 1 -19 5 -62 9 -95 3 -33 8
-94 11 -135 3 -41 7 -100 9 -130 3 -30 8 -91 11 -135 3 -44 8 -98 10 -120 2
-22 7 -78 10 -125 4 -47 8 -101 10 -120 2 -19 6 -78 10 -130 4 -52 9 -106 10
-120 2 -14 3 -49 4 -78 l1 -53 38 6 c71 13 88 15 192 22 137 10 984 10 1122 0
59 -5 131 -14 159 -21 l52 -14 -7 67 c-3 36 -10 99 -16 139 -5 40 -12 94 -16
120 -3 26 -7 58 -9 72 -2 14 -13 97 -25 185 -11 88 -22 171 -24 185 -3 14 -10
68 -16 120 -11 100 -17 145 -25 195 -2 17 -7 57 -10 90 -3 33 -8 67 -10 75 -2
8 -6 44 -10 80 -3 36 -8 74 -10 85 -2 11 -7 47 -10 80 -4 33 -8 69 -10 80 -2
11 -7 45 -10 75 -3 30 -7 66 -9 80 -3 14 -7 52 -11 85 -7 75 -24 212 -29 245
-2 14 -7 57 -11 95 -4 39 -8 77 -10 85 -1 8 -6 42 -9 75 -7 65 -14 120 -21
175 -3 19 -7 62 -11 95 -3 33 -7 71 -9 85 -2 14 -7 50 -10 80 -4 30 -8 69 -10
86 -2 17 -7 62 -10 99 -4 38 -8 77 -10 87 -2 9 -7 48 -10 85 -4 37 -8 78 -10
91 -2 13 -7 53 -10 90 -4 37 -8 78 -11 92 -2 14 -6 54 -9 90 -3 35 -7 76 -10
90 -3 23 -7 58 -21 185 -3 28 -7 61 -9 75 -2 14 -7 59 -11 100 -8 85 -9 103
-18 180 -4 30 -9 78 -12 105 -2 28 -7 70 -10 95 -2 25 -7 65 -9 90 -10 96 -16
156 -20 185 -2 17 -7 57 -10 90 -4 33 -8 76 -10 95 -2 19 -7 64 -10 100 -3 36
-8 83 -10 105 -3 22 -7 63 -10 90 -2 28 -7 70 -10 95 -3 25 -7 65 -9 90 -4 42
-11 100 -21 195 -2 22 -7 72 -10 110 -3 39 -8 81 -10 95 -2 14 -7 57 -10 95
-3 39 -8 86 -10 105 -3 19 -7 67 -10 105 -4 39 -8 81 -10 95 -2 14 -6 59 -10
100 -4 41 -8 86 -10 100 -2 14 -7 59 -10 100 -4 41 -8 88 -10 105 -2 16 -7 61
-11 100 -3 38 -8 81 -9 95 -1 14 -6 61 -10 105 -4 44 -10 97 -14 119 l-6 38
-464 0 c-254 -1 -464 -2 -466 -4 -1 -2 -186 -367 -410 -813 -224 -445 -602
-1197 -840 -1670 -238 -473 -594 -1179 -790 -1570 -196 -390 -360 -711 -364
-713 -8 -3 -19 18 -118 238 -41 91 -85 188 -99 216 -38 83 -169 382 -266 609
-49 116 -96 224 -103 240 -7 17 -39 93 -70 170 -32 77 -63 154 -70 170 -121
279 -680 1742 -760 1990 -7 22 -32 92 -55 155 -38 105 -84 235 -274 784 -36
104 -68 191 -70 193 -7 7 -937 9 -1009 3z"/>
</g>
</svg>
