<?xml version="1.0" standalone="no"?>
<!DOCTYPE svg PUBLIC "-//W3C//DTD SVG 20010904//EN"
 "http://www.w3.org/TR/2001/REC-SVG-20010904/DTD/svg10.dtd">
<svg version="1.0" xmlns="http://www.w3.org/2000/svg"
 width="5000.000000pt" height="5000.000000pt" viewBox="0 0 5000.000000 5000.000000"
 preserveAspectRatio="xMidYMid meet">
<metadata>
Created by potrace 1.11, written by Peter Selinger 2001-2013
</metadata>
<g transform="translate(0.000000,5000.000000) scale(0.100000,-0.100000)"
fill="#000000" stroke="none">
<path d="M30136 45803 c-2 -2 -16 -6 -32 -8 -16 -2 -47 -7 -69 -10 -22 -4 -49
-8 -60 -9 -11 -2 -65 -22 -119 -45 -55 -23 -116 -44 -135 -47 -20 -3 -47 -7
-61 -10 -14 -3 -36 -7 -50 -9 -14 -2 -48 -13 -76 -24 -29 -11 -55 -17 -58 -13
-4 3 -11 0 -16 -8 -8 -13 -81 -32 -170 -44 -14 -2 -37 -8 -51 -14 -15 -6 -29
-9 -31 -6 -3 2 -38 -10 -79 -27 -40 -17 -94 -33 -120 -34 -27 -2 -53 -6 -59
-10 -6 -3 -23 -8 -38 -11 -15 -2 -39 -9 -54 -15 -15 -6 -32 -8 -37 -4 -6 3
-11 1 -11 -6 0 -7 -3 -10 -6 -7 -3 3 -33 -5 -67 -19 -34 -14 -80 -26 -103 -28
-22 -1 -46 -5 -52 -9 -6 -4 -28 -9 -47 -11 -20 -3 -50 -12 -66 -21 -17 -8 -36
-13 -43 -11 -6 3 -29 -3 -49 -13 -41 -20 -88 -33 -162 -44 -16 -3 -55 -12 -85
-21 -30 -9 -63 -17 -72 -18 -10 -1 -18 -5 -18 -10 0 -4 -5 -5 -11 -1 -6 3 -15
1 -19 -6 -7 -12 -23 -16 -90 -25 -14 -2 -37 -8 -51 -13 -15 -6 -29 -8 -32 -6
-3 3 -14 1 -25 -5 -11 -6 -37 -13 -56 -17 -20 -3 -61 -16 -90 -29 -30 -13 -62
-24 -73 -24 -10 0 -38 -5 -63 -11 -25 -6 -56 -12 -70 -14 -14 -2 -38 -9 -53
-15 -16 -6 -33 -9 -38 -5 -5 3 -9 0 -9 -7 0 -7 -3 -10 -6 -6 -3 3 -29 -4 -58
-15 -46 -19 -149 -44 -217 -52 -14 -2 -36 -9 -48 -15 -12 -7 -38 -14 -58 -17
-21 -2 -46 -10 -58 -18 -19 -12 -61 -25 -110 -33 -11 -1 -31 -5 -45 -7 -14 -3
-39 -7 -56 -10 -17 -3 -52 -14 -77 -25 -26 -11 -47 -18 -47 -15 0 2 -10 -2
-22 -10 -13 -8 -45 -17 -73 -20 -87 -11 -99 -14 -143 -31 -24 -10 -45 -15 -48
-12 -3 3 -31 -6 -62 -20 -31 -13 -68 -26 -84 -29 -15 -2 -43 -7 -61 -10 -17
-3 -42 -7 -54 -8 -13 0 -23 -5 -23 -10 0 -5 -3 -7 -6 -3 -4 3 -22 0 -41 -8
-20 -8 -44 -15 -54 -15 -10 0 -43 -11 -74 -24 -30 -14 -63 -25 -72 -25 -35 -1
-78 -9 -104 -19 -15 -6 -29 -9 -31 -6 -3 2 -21 -3 -42 -11 -20 -9 -50 -17 -67
-19 -17 -2 -35 -9 -39 -16 -4 -7 -21 -15 -36 -17 -16 -2 -40 -6 -54 -9 -14 -2
-39 -6 -56 -9 -17 -2 -42 -9 -56 -14 -14 -5 -28 -8 -31 -5 -2 3 -30 -6 -61
-20 -31 -14 -56 -23 -56 -20 0 2 -10 -2 -23 -11 -13 -8 -41 -17 -62 -20 -97
-12 -131 -18 -148 -27 -10 -5 -30 -11 -46 -13 -15 -2 -57 -15 -92 -29 -35 -13
-82 -27 -104 -30 -80 -10 -121 -19 -148 -33 -15 -8 -32 -11 -37 -8 -5 3 -35
-6 -67 -21 -32 -14 -74 -28 -93 -30 -68 -10 -75 -12 -101 -22 -15 -6 -29 -8
-32 -6 -3 3 -22 -2 -43 -11 -21 -9 -52 -17 -68 -19 -17 -2 -32 -9 -34 -15 -2
-6 -8 -9 -13 -6 -5 3 -18 1 -29 -5 -19 -10 -36 -14 -110 -26 -42 -6 -113 -26
-152 -41 -20 -9 -41 -13 -46 -9 -5 3 -13 -1 -16 -10 -4 -10 -14 -14 -26 -11
-10 3 -21 0 -23 -6 -2 -6 -21 -13 -43 -14 -76 -7 -91 -10 -123 -23 -17 -7 -34
-10 -37 -7 -3 3 -38 -8 -77 -25 -40 -17 -84 -32 -99 -34 -85 -12 -160 -28
-176 -38 -6 -4 -26 -9 -45 -11 -18 -2 -55 -14 -83 -26 -27 -12 -60 -24 -74
-25 -48 -5 -85 -13 -111 -23 -15 -5 -29 -8 -31 -5 -3 2 -22 -3 -44 -12 -21 -9
-50 -17 -63 -19 -13 -1 -27 -9 -32 -16 -5 -8 -9 -11 -9 -7 0 4 -15 2 -32 -4
-35 -10 -52 -14 -105 -22 -31 -4 -61 -13 -152 -42 -24 -8 -47 -12 -51 -9 -5 3
-10 0 -12 -6 -2 -6 -15 -13 -28 -14 -14 -2 -36 -7 -50 -12 -14 -5 -39 -9 -57
-9 -17 1 -29 -2 -27 -6 3 -4 -4 -7 -13 -7 -28 0 -101 -21 -171 -49 -35 -13
-78 -27 -95 -29 -18 -2 -43 -6 -57 -9 -14 -3 -36 -7 -50 -9 -14 -2 -38 -8 -53
-14 -16 -6 -33 -9 -38 -5 -5 3 -9 1 -9 -3 0 -5 -8 -9 -17 -10 -10 -1 -40 -11
-67 -23 -27 -11 -63 -23 -80 -25 -17 -3 -43 -7 -58 -10 -16 -3 -40 -7 -55 -9
-16 -2 -48 -13 -73 -23 -25 -10 -52 -19 -60 -18 -8 0 -19 -5 -25 -11 -5 -6
-48 -17 -95 -24 -47 -7 -98 -19 -113 -27 -16 -8 -34 -12 -40 -10 -7 2 -39 -8
-72 -21 -58 -24 -106 -37 -170 -46 -47 -7 -78 -15 -106 -26 -14 -6 -30 -10
-35 -8 -5 1 -40 -10 -79 -26 -38 -16 -81 -30 -95 -32 -14 -1 -36 -5 -50 -8
-14 -2 -41 -7 -61 -10 -19 -3 -51 -12 -71 -20 -19 -8 -38 -13 -40 -11 -3 3
-34 -7 -69 -21 -35 -15 -82 -28 -104 -29 -22 -1 -57 -9 -77 -18 -20 -8 -38
-13 -41 -11 -3 3 -22 -2 -43 -11 -21 -8 -44 -13 -51 -11 -7 3 -13 1 -13 -5 0
-6 -4 -8 -9 -5 -5 3 -11 -1 -15 -9 -3 -8 -16 -15 -28 -15 -13 0 -38 -2 -55 -5
-18 -3 -46 -7 -62 -9 -15 -2 -38 -9 -49 -15 -11 -6 -36 -13 -54 -15 -19 -3
-60 -16 -91 -30 -31 -13 -65 -25 -74 -25 -10 0 -40 -5 -68 -11 -27 -6 -59 -13
-70 -14 -11 -2 -33 -9 -49 -15 -16 -6 -31 -10 -33 -7 -3 2 -37 -9 -76 -25 -40
-17 -85 -32 -102 -34 -16 -3 -43 -7 -60 -10 -16 -2 -41 -6 -55 -8 -14 -2 -42
-11 -62 -20 -20 -8 -39 -13 -41 -10 -3 2 -26 -5 -52 -17 -25 -12 -60 -23 -76
-25 -16 -3 -42 -7 -59 -9 -29 -4 -60 -13 -149 -42 -24 -8 -47 -11 -52 -8 -5 3
-9 0 -9 -6 0 -6 -4 -8 -10 -5 -5 3 -10 1 -10 -5 0 -7 -7 -10 -15 -6 -8 3 -15
2 -15 -3 0 -4 -6 -8 -12 -9 -7 0 -29 -4 -48 -7 -19 -4 -45 -8 -57 -9 -13 0
-23 -4 -23 -9 0 -4 -3 -6 -7 -5 -19 4 -94 -16 -159 -43 -39 -16 -93 -31 -120
-35 -27 -3 -60 -7 -74 -9 -14 -2 -38 -9 -55 -15 -16 -7 -42 -14 -56 -16 -14
-2 -47 -13 -74 -24 -45 -19 -68 -25 -135 -34 -14 -2 -37 -8 -51 -14 -15 -6
-29 -9 -31 -6 -3 2 -22 -3 -44 -12 -21 -9 -51 -18 -67 -19 -15 -1 -33 -7 -40
-12 -12 -11 -57 -24 -92 -29 -54 -8 -80 -14 -106 -25 -16 -6 -32 -9 -35 -6 -3
3 -26 -3 -51 -14 -24 -10 -55 -19 -68 -19 -13 0 -31 -7 -40 -16 -9 -9 -19 -14
-22 -11 -3 4 -13 2 -22 -2 -9 -5 -37 -11 -62 -14 -46 -5 -64 -9 -164 -41 -27
-9 -60 -16 -71 -16 -12 0 -24 -6 -27 -14 -3 -8 -29 -17 -64 -21 -32 -4 -67 -9
-78 -11 -11 -1 -39 -9 -62 -17 -22 -9 -43 -13 -46 -11 -2 3 -31 -7 -63 -22
-33 -14 -80 -28 -105 -29 -26 -2 -56 -8 -67 -14 -11 -6 -37 -13 -56 -15 -20
-3 -43 -9 -53 -15 -10 -5 -31 -11 -48 -14 -16 -2 -48 -12 -70 -21 -38 -16 -65
-23 -127 -30 -14 -2 -31 -7 -37 -10 -6 -4 -27 -9 -46 -11 -20 -3 -50 -12 -66
-21 -17 -8 -37 -13 -44 -10 -8 3 -24 -3 -37 -13 -13 -10 -30 -19 -38 -20 -8 0
-31 -4 -50 -7 -19 -3 -44 -7 -56 -8 -12 -1 -35 -8 -53 -16 -17 -7 -34 -10 -37
-7 -3 3 -26 -3 -51 -14 -25 -10 -49 -17 -54 -13 -5 3 -9 1 -9 -5 0 -6 -6 -8
-14 -5 -7 3 -16 -2 -19 -10 -4 -9 -17 -16 -29 -16 -43 0 -146 -21 -189 -38
-15 -6 -29 -8 -32 -6 -3 3 -33 -7 -68 -22 -35 -15 -75 -28 -89 -30 -61 -8 -92
-14 -109 -23 -10 -6 -21 -8 -25 -4 -3 3 -24 -2 -46 -12 -22 -10 -43 -16 -46
-13 -3 4 -33 -5 -67 -19 -34 -14 -71 -27 -82 -29 -11 -2 -37 -5 -58 -9 -21 -3
-47 -10 -59 -16 -11 -6 -22 -8 -25 -5 -3 3 -22 -2 -43 -10 -20 -8 -41 -14 -46
-13 -14 4 -58 -13 -66 -25 -4 -6 -15 -12 -25 -13 -10 -1 -33 -4 -51 -7 -17 -3
-44 -8 -60 -10 -15 -2 -40 -9 -56 -15 -16 -7 -31 -9 -33 -7 -3 3 -27 -4 -54
-14 -27 -11 -49 -17 -49 -14 0 3 -7 -2 -16 -10 -16 -17 -17 -17 -75 -20 -19
-1 -50 -8 -68 -15 -17 -8 -34 -11 -37 -8 -3 3 -22 -2 -42 -10 -20 -9 -50 -17
-65 -20 -16 -2 -49 -13 -74 -24 -25 -11 -62 -22 -82 -25 -20 -3 -47 -7 -61
-10 -14 -3 -36 -7 -50 -9 -14 -2 -42 -10 -62 -19 -21 -9 -46 -16 -56 -16 -11
0 -41 -10 -68 -22 -27 -12 -61 -23 -76 -25 -68 -8 -85 -11 -109 -21 -15 -6
-29 -9 -31 -6 -3 2 -22 -3 -42 -11 -20 -9 -41 -13 -46 -10 -6 4 -10 2 -10 -2
0 -5 -10 -9 -22 -10 -12 -1 -26 -9 -30 -17 -5 -9 -19 -16 -31 -16 -12 0 -35
-2 -52 -4 -16 -3 -42 -7 -57 -10 -14 -2 -36 -7 -48 -11 -12 -4 -32 -8 -43 -10
-12 -2 -51 -15 -87 -30 -36 -15 -83 -28 -106 -30 -22 -1 -46 -5 -51 -8 -6 -4
-27 -9 -46 -11 -20 -3 -49 -11 -64 -19 -15 -7 -35 -13 -43 -12 -8 1 -40 -10
-70 -23 -30 -13 -75 -25 -100 -27 -25 -2 -58 -8 -74 -14 -16 -7 -31 -10 -33
-7 -3 2 -25 -4 -50 -15 -25 -10 -48 -17 -53 -14 -4 3 -34 -7 -65 -21 -32 -14
-64 -23 -72 -20 -8 3 -11 2 -8 -4 3 -5 -3 -9 -12 -8 -10 0 -34 -3 -53 -7 -19
-3 -46 -8 -60 -9 -14 -2 -42 -11 -64 -20 -21 -9 -42 -13 -47 -10 -5 3 -9 0 -9
-6 0 -6 -5 -8 -11 -5 -6 4 -16 0 -22 -9 -7 -9 -28 -18 -47 -21 -106 -13 -137
-18 -152 -26 -10 -5 -30 -11 -45 -13 -37 -4 -179 -64 -222 -93 -18 -13 -40
-23 -47 -23 -8 0 -14 -5 -14 -11 0 -5 -4 -7 -10 -4 -6 3 -10 1 -10 -5 0 -6
-11 -15 -25 -20 -14 -5 -25 -14 -25 -20 0 -5 -6 -10 -14 -10 -18 0 -196 -178
-220 -221 -11 -19 -27 -41 -35 -49 -9 -8 -23 -28 -31 -45 -8 -16 -25 -45 -37
-64 -13 -19 -23 -44 -23 -57 0 -12 -5 -24 -11 -26 -6 -2 -15 -21 -19 -43 -4
-22 -17 -71 -28 -110 -34 -122 -46 -251 -33 -352 14 -105 38 -221 52 -245 5
-10 9 -23 9 -30 0 -18 42 -120 63 -151 9 -15 17 -29 17 -32 0 -3 16 -27 35
-54 19 -26 35 -53 35 -59 0 -14 215 -232 229 -232 6 0 42 -24 78 -52 37 -29
63 -47 58 -39 -4 8 8 2 28 -13 20 -16 37 -25 37 -22 0 4 10 1 23 -6 12 -7 24
-13 27 -13 3 0 15 -6 28 -14 13 -7 33 -15 45 -17 12 -3 31 -7 42 -9 37 -9 65
-15 88 -20 12 -3 38 -8 57 -10 19 -3 49 -7 65 -10 17 -3 35 -6 40 -6 30 1 175
12 205 17 56 8 83 12 115 18 17 2 67 20 112 40 45 19 90 35 100 35 10 0 29 2
43 5 28 6 93 16 129 20 13 2 27 10 32 17 4 7 11 11 14 7 4 -3 34 5 68 19 34
14 71 27 82 29 11 2 37 5 58 9 21 3 47 10 58 15 11 6 24 8 29 5 5 -3 23 1 40
10 17 9 36 15 43 14 21 -4 67 13 67 24 0 6 3 7 6 4 4 -3 15 -2 26 4 10 5 32
12 48 14 17 3 45 8 63 11 17 3 42 7 55 8 12 0 22 5 22 10 0 5 3 7 6 3 3 -3 28
3 54 13 26 10 51 16 54 13 3 -4 6 0 6 7 0 7 3 10 7 7 3 -4 12 -2 20 5 8 6 31
12 51 13 20 1 48 5 60 9 29 10 70 17 95 17 11 0 44 11 75 25 31 13 62 22 69
19 8 -2 12 -1 9 4 -7 11 16 21 64 27 19 3 46 8 60 10 14 3 36 7 50 9 14 2 38
8 54 14 16 7 31 10 33 7 3 -2 37 9 76 26 40 17 86 32 102 34 40 5 71 11 125
24 25 7 55 12 68 13 12 1 22 5 22 9 0 5 3 7 8 7 21 -4 42 3 56 17 9 8 16 13
16 10 0 -4 15 0 34 8 19 8 36 12 39 10 2 -3 26 0 53 7 27 6 59 12 71 13 23 3
125 40 157 58 10 5 33 11 50 13 17 2 42 6 56 10 14 3 40 7 57 10 18 2 41 9 52
15 11 5 28 10 38 10 11 0 48 12 84 26 35 14 73 28 84 29 11 2 35 6 53 9 109
18 161 32 239 63 34 14 67 21 74 17 7 -4 9 -3 5 4 -4 6 1 11 11 10 10 0 34 3
53 7 19 3 46 8 60 10 14 2 44 10 67 18 22 9 44 13 47 10 3 -4 6 -1 6 5 0 6 6
9 14 6 7 -3 20 1 27 8 8 7 23 14 34 16 57 9 73 12 110 21 22 4 52 13 66 19 15
6 29 9 32 6 2 -2 26 5 52 16 27 12 54 19 61 16 7 -3 15 1 17 8 3 7 25 16 49
20 23 4 54 9 68 11 14 3 37 7 51 9 14 2 35 9 48 15 12 7 27 10 34 8 7 -2 44
10 82 26 39 16 82 31 98 33 15 2 39 6 55 9 15 2 40 6 56 9 15 2 41 10 57 17
16 6 32 9 35 6 3 -3 31 6 62 20 31 13 68 26 84 29 73 10 85 13 112 23 16 7 31
9 33 7 3 -3 28 4 57 16 28 11 62 21 75 23 13 1 26 6 30 11 3 5 15 10 26 12 11
1 34 5 50 8 17 3 41 7 55 9 14 1 42 10 62 18 20 8 38 13 41 11 3 -3 22 2 43
11 21 8 44 13 51 10 9 -3 11 0 7 7 -5 7 -2 9 9 5 9 -3 18 1 21 10 4 9 14 13
25 10 10 -2 26 0 35 5 10 6 39 11 65 13 27 2 58 8 69 14 11 6 36 13 56 15 19
3 49 12 66 21 18 9 38 14 45 11 7 -2 16 2 19 10 3 7 16 14 28 14 40 -1 84 6
98 15 13 8 40 13 97 18 11 1 19 6 16 11 -3 5 0 6 8 4 8 -3 44 8 81 23 37 15
90 30 117 33 28 3 60 10 71 16 11 6 24 9 29 6 5 -3 28 3 52 13 24 11 55 21 69
23 14 1 28 7 32 12 6 9 12 11 73 20 28 4 74 14 165 35 19 4 52 15 74 24 21 9
42 15 46 12 5 -3 14 1 22 8 7 8 20 14 28 15 8 0 30 3 48 6 17 3 45 8 60 10 15
2 44 11 64 19 20 8 39 13 42 10 3 -3 28 4 56 16 28 12 55 19 59 16 5 -3 11 0
13 6 2 6 19 13 38 16 19 2 46 6 60 9 14 3 36 7 50 9 14 2 44 10 67 18 22 9 44
13 47 10 3 -4 6 -1 6 6 0 7 4 10 9 6 5 -3 35 6 65 19 31 14 64 25 73 25 35 1
78 9 104 19 15 6 29 9 32 6 2 -2 26 5 52 16 27 11 53 19 59 17 6 -2 30 5 53
15 23 10 54 20 70 23 15 2 48 9 73 15 25 6 56 13 70 14 14 2 42 11 64 20 21 9
49 16 63 16 13 0 26 6 29 14 3 8 15 14 27 14 24 1 44 4 122 22 28 6 61 13 75
15 14 2 42 11 63 19 21 9 42 14 47 11 6 -4 10 -2 10 3 0 12 25 23 65 29 17 2
39 6 50 8 11 2 38 7 60 11 22 4 59 15 83 25 24 10 40 14 37 9 -4 -6 20 1 52
15 32 15 70 28 86 31 15 2 42 6 60 10 53 10 85 15 117 18 16 2 37 11 46 20 8
9 19 14 24 11 4 -3 30 4 56 15 45 20 72 26 136 34 14 2 31 7 37 10 6 4 27 9
46 11 20 3 50 12 66 21 17 8 37 13 44 10 8 -3 24 3 37 13 13 10 30 19 38 19 8
1 29 4 45 7 17 3 44 7 61 9 17 2 41 9 53 16 13 6 29 9 37 6 8 -3 14 -2 14 2 0
4 8 8 18 9 9 1 39 11 66 23 27 11 63 23 80 26 45 7 78 13 106 18 14 3 42 7 63
10 20 3 45 10 55 15 40 21 124 52 129 47 3 -3 20 1 38 9 19 7 35 11 38 9 3 -3
22 2 42 10 20 9 41 14 45 11 5 -3 29 4 55 15 25 11 49 19 53 19 20 -3 42 2 54
14 7 6 22 13 33 15 11 1 29 4 40 6 11 3 37 7 58 10 21 3 47 10 56 16 10 5 21
7 24 4 2 -3 22 2 43 11 21 8 44 13 51 11 7 -3 13 -1 13 5 0 6 5 7 10 4 6 -3
10 -2 10 3 0 11 24 23 55 27 52 9 102 17 125 21 14 3 36 6 50 8 14 2 61 18
104 36 43 18 97 34 120 35 23 2 58 10 79 18 21 9 35 12 32 7 -3 -5 15 -1 40
10 26 11 55 20 65 20 10 0 39 9 64 19 25 11 53 20 63 20 10 0 38 5 63 11 25 6
56 13 70 15 14 2 42 10 62 19 21 9 48 16 60 16 13 0 34 8 48 17 26 18 27 18
109 28 30 3 62 10 71 15 10 5 20 7 22 5 3 -3 35 6 71 20 37 14 67 22 67 19 0
-3 7 2 16 10 8 9 21 16 27 17 13 1 49 6 87 13 14 3 40 7 57 10 18 3 49 12 68
20 20 9 33 11 30 6 -3 -5 20 2 52 16 31 14 69 27 85 30 73 10 85 13 112 23 16
7 31 9 33 7 3 -3 28 4 55 15 28 11 53 18 55 15 3 -2 26 5 51 16 26 11 61 22
77 25 52 8 89 14 116 18 14 1 36 8 48 14 11 7 21 9 21 6 0 -3 11 2 25 11 14 9
32 14 40 10 9 -3 24 3 35 14 10 10 27 19 37 19 10 1 32 3 48 6 17 3 44 7 61 9
17 2 41 9 53 16 13 6 29 9 37 6 8 -3 14 0 14 6 0 6 3 9 6 5 3 -3 28 3 55 13
27 11 49 17 49 14 0 -3 7 2 16 10 8 9 21 17 27 17 7 1 28 2 47 3 19 2 46 6 58
10 13 5 34 10 45 11 31 5 146 40 182 55 17 7 41 14 55 16 14 2 36 6 50 8 31 6
80 14 122 20 17 3 35 11 39 18 4 7 11 10 14 6 4 -3 37 6 73 22 37 15 87 30
112 33 25 3 67 10 93 16 27 6 52 9 57 6 4 -3 11 2 14 11 4 10 14 14 26 11 11
-3 20 -1 20 5 0 5 4 7 9 4 5 -3 19 3 32 13 21 16 52 23 154 37 11 1 33 7 48
13 16 6 33 9 38 5 5 -3 9 0 9 6 0 6 4 9 9 6 5 -3 28 3 52 13 24 11 47 17 51
15 4 -3 8 -1 8 4 0 11 39 23 90 29 19 1 50 5 68 8 17 3 44 7 60 9 15 2 61 18
102 36 68 30 88 35 155 44 11 1 31 6 43 10 13 5 34 10 45 11 41 7 112 28 172
51 33 12 67 23 75 23 31 1 73 10 101 22 16 6 32 9 35 6 3 -3 21 1 40 9 19 8
39 12 44 9 6 -4 10 -1 10 5 0 6 5 8 10 5 6 -3 10 -2 10 4 0 6 7 8 15 5 8 -4
15 -1 15 6 0 6 5 8 10 5 6 -3 10 -1 10 5 0 6 4 8 10 5 5 -3 18 -2 27 4 16 8
98 21 143 23 8 1 53 17 100 36 47 19 94 36 105 38 11 2 37 5 58 9 21 3 46 9
56 14 33 18 39 0 24 -74 -8 -38 -18 -74 -23 -80 -4 -5 -11 -26 -15 -45 -4 -19
-13 -44 -20 -55 -7 -11 -21 -71 -31 -134 -10 -62 -23 -119 -29 -125 -5 -6 -15
-29 -22 -51 -6 -22 -18 -60 -26 -85 -8 -25 -21 -83 -27 -130 -7 -47 -16 -87
-21 -90 -8 -6 -48 -152 -74 -275 -9 -44 -21 -84 -26 -90 -5 -5 -9 -18 -9 -30
0 -11 -9 -38 -20 -60 -11 -21 -23 -62 -26 -89 -10 -79 -32 -176 -42 -189 -5
-7 -15 -34 -22 -62 -6 -27 -18 -68 -26 -90 -7 -22 -19 -74 -25 -115 -7 -41
-16 -77 -19 -80 -7 -5 -18 -42 -46 -155 -8 -33 -21 -82 -29 -109 -8 -26 -15
-61 -15 -77 0 -16 -4 -29 -10 -29 -5 0 -10 -10 -10 -22 0 -13 -9 -43 -21 -67
-17 -40 -25 -76 -46 -216 -3 -22 -11 -47 -18 -55 -7 -8 -18 -40 -25 -70 -7
-30 -19 -68 -25 -85 -7 -16 -18 -68 -26 -115 -7 -47 -19 -94 -26 -105 -7 -11
-13 -29 -13 -40 0 -12 -4 -25 -8 -30 -5 -6 -15 -37 -22 -70 -7 -33 -19 -79
-26 -103 -8 -23 -14 -56 -14 -72 0 -17 -4 -30 -10 -30 -5 0 -10 -7 -10 -16 0
-13 -32 -135 -61 -230 -5 -17 -9 -47 -9 -66 0 -20 -7 -43 -15 -52 -8 -8 -15
-21 -15 -29 0 -8 -11 -48 -24 -88 -24 -77 -46 -179 -46 -218 0 -12 -7 -29 -15
-37 -8 -9 -15 -25 -15 -38 0 -12 -4 -26 -8 -32 -5 -5 -15 -36 -22 -69 -7 -33
-19 -79 -26 -103 -8 -23 -14 -56 -14 -72 0 -17 -4 -30 -10 -30 -5 0 -10 -7
-10 -17 0 -14 -32 -135 -61 -229 -5 -17 -9 -47 -9 -66 0 -20 -6 -43 -14 -50
-7 -8 -16 -27 -19 -43 -3 -17 -10 -46 -16 -65 -26 -88 -50 -198 -51 -227 0
-18 -4 -33 -9 -33 -5 0 -14 -19 -20 -42 -47 -166 -65 -239 -69 -278 -2 -25 -8
-47 -12 -50 -4 -3 -19 -48 -34 -100 -15 -52 -32 -109 -37 -126 -5 -17 -9 -47
-9 -66 0 -20 -6 -43 -14 -50 -7 -8 -16 -27 -19 -43 -3 -17 -10 -46 -16 -65
-25 -87 -50 -198 -51 -227 0 -17 -4 -34 -9 -37 -10 -7 -33 -77 -51 -156 -7
-30 -19 -74 -27 -98 -7 -23 -13 -54 -13 -68 0 -15 -16 -68 -35 -120 -19 -51
-35 -107 -35 -123 0 -16 -4 -33 -10 -36 -5 -3 -10 -23 -10 -44 0 -35 -16 -94
-39 -146 -5 -11 -16 -47 -25 -80 -9 -33 -21 -74 -26 -91 -6 -17 -10 -45 -10
-63 0 -18 -11 -60 -24 -94 -13 -34 -30 -87 -36 -117 -7 -30 -17 -67 -22 -81
-5 -15 -13 -51 -17 -80 -5 -30 -21 -85 -35 -124 -27 -69 -38 -114 -56 -228 -6
-33 -13 -64 -17 -70 -4 -7 -8 -16 -10 -22 -1 -5 -11 -37 -22 -70 -37 -111 -51
-164 -51 -193 0 -32 -14 -83 -34 -122 -7 -14 -18 -52 -25 -85 -7 -33 -17 -72
-23 -86 -5 -15 -13 -51 -18 -80 -4 -30 -20 -88 -35 -129 -29 -82 -42 -135 -54
-220 -5 -30 -16 -73 -25 -95 -26 -60 -44 -116 -52 -160 -3 -22 -10 -44 -14
-50 -4 -5 -10 -36 -13 -68 -3 -32 -15 -77 -25 -100 -11 -23 -25 -67 -32 -97
-7 -30 -16 -65 -20 -76 -5 -12 -11 -43 -15 -70 -4 -27 -15 -71 -25 -99 -9 -27
-25 -77 -35 -110 -9 -33 -21 -74 -26 -91 -5 -17 -9 -46 -9 -65 0 -19 -12 -61
-25 -94 -14 -33 -25 -66 -25 -73 0 -7 -4 -20 -10 -30 -11 -19 -27 -90 -41
-174 -5 -32 -16 -75 -25 -95 -41 -98 -60 -168 -69 -258 -3 -27 -10 -60 -15
-72 -20 -45 -28 -69 -45 -128 -9 -33 -21 -74 -26 -91 -5 -17 -9 -45 -9 -63 0
-18 -10 -60 -23 -94 -13 -34 -29 -78 -36 -97 -21 -58 -40 -143 -41 -178 0 -19
-12 -64 -26 -100 -14 -37 -32 -84 -39 -104 -8 -20 -19 -75 -25 -122 -6 -47
-19 -105 -28 -128 -30 -73 -61 -183 -80 -288 -14 -78 -16 -84 -25 -91 -5 -3
-12 -21 -17 -40 -5 -19 -18 -65 -29 -104 -11 -38 -21 -86 -21 -105 0 -19 -12
-62 -25 -95 -14 -33 -25 -68 -25 -77 0 -9 -4 -19 -9 -22 -8 -5 -16 -42 -39
-176 -10 -54 -45 -168 -63 -202 -5 -10 -9 -29 -9 -43 0 -14 -4 -33 -9 -43 -5
-9 -14 -51 -20 -92 -7 -41 -18 -81 -25 -90 -7 -8 -16 -26 -19 -40 -3 -14 -15
-56 -26 -95 -11 -38 -21 -81 -21 -95 0 -35 -23 -130 -31 -130 -4 0 -10 -15
-14 -32 -4 -18 -12 -46 -20 -63 -7 -16 -20 -74 -29 -129 -9 -54 -23 -111 -31
-127 -8 -15 -15 -35 -15 -44 0 -10 -6 -31 -14 -48 -8 -18 -17 -45 -19 -62 -20
-113 -39 -200 -47 -209 -21 -26 -54 -146 -80 -296 -6 -36 -16 -66 -21 -68 -4
-2 -11 -20 -15 -40 -4 -20 -11 -42 -16 -49 -5 -6 -18 -60 -28 -120 -11 -59
-26 -124 -33 -143 -13 -31 -21 -59 -57 -185 -5 -16 -14 -64 -21 -105 -7 -41
-19 -81 -26 -88 -7 -7 -13 -27 -13 -43 0 -16 -4 -29 -9 -29 -8 0 -23 -59 -50
-207 -6 -34 -18 -74 -26 -90 -8 -15 -15 -35 -15 -43 0 -9 -5 -21 -10 -26 -6
-6 -20 -60 -31 -120 -12 -60 -23 -121 -26 -136 -3 -16 -9 -28 -13 -28 -4 0
-10 -15 -14 -32 -3 -18 -13 -58 -22 -88 -9 -30 -23 -93 -32 -140 -9 -47 -22
-91 -29 -98 -7 -7 -13 -24 -13 -37 0 -13 -4 -34 -9 -47 -14 -35 -38 -125 -51
-197 -6 -35 -15 -71 -21 -80 -5 -9 -13 -28 -19 -43 -8 -24 -17 -30 -45 -28 -3
1 -13 -6 -21 -15 -9 -8 -21 -15 -27 -16 -7 0 -21 -2 -32 -4 -11 -2 -36 -6 -55
-9 -19 -3 -46 -7 -60 -9 -14 -2 -42 -11 -62 -20 -20 -8 -38 -13 -41 -11 -2 3
-29 -5 -58 -17 -30 -12 -63 -23 -74 -25 -11 -2 -34 -5 -52 -8 -18 -2 -49 -10
-70 -16 -21 -7 -54 -17 -73 -23 -32 -10 -55 -14 -87 -16 -6 -1 -18 -8 -27 -16
-8 -9 -18 -15 -21 -15 -3 1 -18 -1 -33 -4 -15 -3 -43 -8 -62 -10 -19 -2 -48
-9 -64 -15 -16 -7 -31 -9 -33 -7 -3 3 -28 -4 -55 -15 -27 -10 -53 -17 -58 -14
-4 2 -18 -4 -32 -14 -13 -11 -46 -22 -73 -26 -28 -3 -61 -8 -75 -10 -14 -2
-38 -8 -53 -14 -16 -6 -33 -9 -38 -5 -5 3 -9 0 -9 -7 0 -7 -3 -10 -6 -6 -3 3
-28 -3 -54 -13 -26 -10 -51 -16 -54 -13 -3 4 -6 2 -6 -4 0 -12 -40 -25 -85
-28 -16 -1 -41 -5 -53 -9 -13 -5 -34 -10 -45 -11 -41 -7 -112 -28 -167 -49
-30 -11 -64 -22 -75 -23 -69 -8 -82 -11 -103 -22 -12 -6 -26 -9 -31 -6 -5 3
-30 -4 -56 -15 -26 -11 -51 -18 -55 -15 -10 6 -60 -15 -60 -24 0 -4 -8 -8 -17
-9 -10 -1 -31 -4 -48 -7 -16 -3 -43 -7 -59 -9 -15 -3 -41 -10 -57 -17 -16 -6
-32 -9 -35 -6 -3 3 -22 -2 -42 -10 -20 -9 -50 -17 -67 -19 -16 -2 -33 -11 -38
-19 -4 -8 -18 -15 -30 -14 -30 0 -156 -26 -188 -39 -15 -6 -29 -9 -32 -6 -2 2
-25 -4 -51 -15 -25 -11 -46 -18 -46 -15 0 2 -11 -3 -25 -12 -13 -9 -47 -17
-74 -19 -27 -2 -58 -8 -69 -14 -10 -6 -22 -8 -24 -5 -3 3 -24 -3 -47 -12 -23
-9 -44 -14 -47 -11 -4 3 -31 -5 -62 -19 -31 -14 -72 -27 -91 -30 -68 -10 -76
-12 -102 -22 -15 -6 -29 -8 -32 -6 -3 3 -22 -2 -42 -10 -21 -9 -48 -16 -60
-16 -12 0 -33 -8 -46 -18 -13 -11 -31 -19 -39 -20 -8 0 -30 -3 -48 -6 -17 -3
-45 -8 -62 -10 -16 -3 -34 -7 -39 -11 -6 -3 -23 -8 -38 -10 -16 -2 -46 -10
-68 -18 -22 -8 -46 -12 -54 -9 -9 3 -11 0 -6 -8 6 -9 4 -11 -5 -5 -7 4 -16 2
-20 -5 -4 -7 -21 -15 -36 -17 -16 -2 -40 -7 -54 -9 -14 -3 -39 -6 -55 -8 -17
-2 -47 -11 -67 -19 -20 -8 -38 -13 -41 -11 -3 3 -33 -7 -68 -22 -35 -15 -76
-29 -91 -30 -78 -10 -151 -27 -192 -43 -16 -6 -31 -10 -33 -7 -3 2 -36 -9 -74
-24 -38 -16 -77 -29 -86 -29 -10 0 -27 -2 -38 -4 -11 -2 -38 -7 -60 -11 -22
-4 -56 -14 -76 -22 -19 -9 -39 -14 -45 -13 -15 4 -64 -12 -64 -21 0 -4 -15
-11 -32 -14 -18 -3 -42 -8 -53 -11 -34 -7 -99 -17 -117 -18 -10 -1 -18 -6 -18
-11 0 -5 -3 -7 -6 -3 -3 3 -28 -3 -54 -13 -26 -10 -51 -16 -54 -13 -3 4 -6 0
-6 -7 0 -7 -3 -10 -7 -7 -3 4 -12 2 -20 -5 -7 -6 -33 -12 -56 -13 -23 -2 -54
-8 -68 -13 -15 -6 -29 -9 -32 -6 -2 2 -24 -4 -48 -14 -24 -10 -49 -17 -55 -15
-6 2 -37 -8 -69 -22 -32 -15 -75 -29 -94 -31 -20 -3 -47 -8 -61 -10 -14 -3
-36 -7 -50 -9 -14 -2 -38 -9 -55 -15 -16 -7 -42 -14 -57 -16 -14 -2 -51 -14
-82 -28 -31 -14 -64 -25 -73 -25 -10 0 -31 -3 -48 -6 -16 -3 -44 -7 -61 -9
-17 -2 -41 -9 -53 -16 -13 -6 -29 -9 -37 -6 -8 3 -14 1 -14 -4 0 -6 -3 -9 -7
-9 -21 3 -43 -2 -55 -13 -15 -15 -20 -16 -103 -30 -33 -5 -76 -16 -96 -23 -20
-8 -39 -12 -41 -9 -3 2 -38 -10 -78 -27 -40 -17 -87 -32 -104 -35 -17 -2 -42
-5 -56 -8 -14 -3 -39 -7 -57 -10 -18 -3 -42 -10 -53 -16 -11 -6 -26 -10 -33
-8 -6 1 -43 -10 -82 -26 -38 -16 -79 -30 -90 -32 -11 -2 -33 -5 -50 -8 -16 -3
-47 -8 -68 -11 -21 -3 -47 -10 -57 -15 -10 -6 -28 -10 -39 -10 -11 0 -45 -11
-76 -24 -30 -14 -63 -25 -72 -25 -35 -1 -82 -9 -92 -15 -6 -4 -23 -9 -38 -11
-16 -2 -46 -10 -68 -18 -22 -8 -46 -12 -54 -9 -8 3 -11 0 -7 -7 4 -6 2 -9 -7
-5 -8 3 -21 -1 -28 -8 -8 -7 -23 -14 -34 -16 -57 -9 -73 -12 -110 -21 -22 -4
-52 -13 -66 -19 -15 -6 -29 -8 -32 -6 -3 3 -38 -9 -78 -26 -40 -17 -77 -29
-83 -27 -6 3 -19 0 -28 -5 -16 -8 -31 -11 -108 -22 -14 -2 -38 -9 -54 -15 -16
-6 -31 -10 -33 -7 -3 2 -35 -9 -73 -24 -38 -16 -92 -31 -119 -34 -28 -3 -60
-10 -72 -16 -11 -7 -23 -9 -26 -6 -3 3 -23 -2 -45 -11 -21 -8 -41 -13 -44 -10
-4 3 -32 -5 -63 -19 -31 -14 -68 -27 -84 -30 -15 -2 -39 -6 -55 -8 -15 -2 -40
-9 -56 -15 -16 -7 -31 -9 -33 -7 -3 3 -28 -4 -57 -16 -28 -11 -62 -21 -75 -23
-13 -1 -26 -6 -30 -11 -3 -5 -11 -10 -18 -11 -21 -4 -87 -15 -108 -17 -11 -1
-38 -9 -60 -16 -22 -8 -46 -13 -52 -12 -7 2 -27 -4 -44 -13 -17 -9 -37 -14
-45 -11 -8 3 -13 2 -10 -3 6 -9 -54 -35 -62 -26 -3 2 -14 0 -24 -6 -11 -6 -42
-12 -68 -14 -26 -2 -57 -8 -69 -14 -12 -7 -37 -14 -56 -16 -18 -3 -59 -16 -89
-29 -31 -14 -64 -25 -73 -25 -36 -1 -80 -8 -90 -14 -12 -7 -60 -17 -100 -20
-11 -1 -19 -6 -15 -11 3 -5 -2 -7 -11 -3 -10 4 -17 1 -17 -5 0 -6 -3 -9 -6 -5
-3 3 -29 -4 -58 -15 -28 -12 -62 -23 -76 -24 -66 -9 -89 -14 -112 -23 -14 -5
-28 -8 -30 -5 -3 2 -25 -4 -49 -15 -24 -11 -55 -21 -69 -23 -14 -1 -28 -7 -32
-13 -4 -5 -17 -10 -30 -12 -30 -3 -61 -9 -123 -23 -106 -23 -122 -28 -175 -49
-30 -13 -64 -24 -75 -26 -11 -2 -35 -6 -53 -9 -110 -19 -161 -32 -240 -64 -35
-13 -78 -27 -95 -29 -18 -2 -43 -6 -57 -9 -14 -3 -36 -7 -50 -9 -14 -2 -44
-10 -67 -18 -22 -9 -44 -13 -47 -10 -3 4 -6 1 -6 -6 0 -7 -4 -10 -9 -7 -5 4
-31 -3 -58 -15 -45 -19 -72 -26 -133 -34 -14 -2 -37 -8 -51 -13 -15 -6 -29 -9
-32 -6 -2 2 -26 -5 -52 -16 -27 -12 -54 -19 -62 -16 -7 3 -13 1 -13 -5 0 -6
-5 -7 -10 -4 -6 3 -10 2 -10 -3 0 -5 -19 -13 -42 -17 -24 -4 -52 -9 -63 -12
-11 -2 -29 -5 -41 -7 -12 -1 -35 -8 -53 -16 -17 -7 -34 -10 -37 -7 -3 3 -38
-8 -77 -25 -40 -17 -84 -32 -99 -34 -54 -8 -83 -13 -128 -24 -25 -6 -56 -13
-70 -15 -14 -2 -42 -11 -63 -19 -21 -9 -42 -14 -47 -11 -6 4 -10 2 -10 -4 0
-10 -32 -24 -65 -27 -11 -2 -31 -5 -45 -8 -14 -2 -41 -7 -61 -10 -20 -3 -57
-14 -82 -25 -25 -11 -47 -17 -50 -15 -2 3 -29 -5 -58 -17 -30 -12 -63 -23 -74
-25 -11 -2 -37 -5 -58 -9 -21 -3 -47 -10 -59 -16 -11 -6 -22 -8 -25 -5 -3 3
-22 -2 -42 -10 -19 -8 -49 -16 -65 -18 -15 -2 -32 -10 -37 -17 -4 -7 -11 -10
-15 -7 -4 4 -15 3 -25 -2 -9 -6 -35 -13 -56 -16 -21 -3 -48 -7 -60 -9 -12 -2
-26 -6 -32 -9 -6 -4 -27 -9 -46 -11 -20 -3 -50 -12 -66 -21 -17 -8 -36 -13
-42 -11 -7 2 -16 -2 -22 -10 -5 -7 -28 -16 -50 -19 -22 -3 -51 -7 -65 -10 -14
-3 -36 -6 -50 -8 -14 -2 -38 -9 -53 -15 -16 -6 -33 -9 -38 -5 -5 3 -9 1 -9 -3
0 -5 -8 -9 -18 -10 -9 -1 -39 -11 -66 -23 -27 -11 -63 -23 -80 -25 -17 -3 -44
-7 -61 -10 -16 -3 -41 -7 -55 -9 -14 -2 -46 -13 -72 -24 -25 -11 -49 -18 -52
-15 -3 3 -29 -5 -58 -17 -29 -13 -65 -25 -81 -27 -15 -1 -39 -4 -55 -6 -15 -2
-37 -9 -50 -16 -12 -6 -26 -9 -31 -6 -5 3 -30 -4 -56 -15 -26 -11 -51 -18 -55
-15 -5 3 -15 -1 -22 -8 -8 -8 -29 -17 -48 -20 -19 -4 -46 -9 -60 -11 -14 -3
-40 -7 -59 -11 -19 -3 -41 -9 -50 -14 -9 -5 -21 -6 -28 -4 -6 2 -26 -3 -43
-12 -18 -9 -38 -14 -46 -11 -8 3 -14 1 -14 -5 0 -6 -4 -7 -10 -4 -5 3 -10 2
-10 -3 0 -11 -24 -23 -55 -27 -11 -2 -38 -6 -60 -10 -22 -4 -53 -8 -68 -11
-15 -2 -37 -8 -48 -14 -10 -6 -24 -8 -29 -5 -6 3 -10 1 -10 -5 0 -6 -4 -9 -9
-5 -5 3 -36 -6 -68 -21 -32 -14 -78 -27 -103 -30 -25 -2 -76 -13 -115 -24 -38
-12 -82 -23 -96 -25 -14 -1 -37 -9 -50 -16 -26 -14 -39 -18 -79 -25 -14 -2
-45 -9 -70 -14 -25 -6 -56 -13 -70 -14 -14 -2 -42 -11 -64 -20 -21 -9 -49 -16
-63 -16 -13 0 -26 -7 -29 -15 -3 -8 -16 -14 -27 -14 -24 0 -153 -25 -177 -34
-8 -4 -26 -8 -40 -11 -14 -2 -44 -11 -67 -20 -24 -8 -43 -13 -43 -10 0 3 -7
-2 -16 -10 -8 -9 -21 -16 -27 -17 -7 0 -21 -2 -32 -4 -11 -2 -36 -6 -55 -9
-60 -9 -92 -16 -126 -31 -18 -7 -35 -11 -37 -8 -3 2 -37 -9 -75 -26 -39 -16
-72 -27 -75 -24 -5 5 -119 -20 -177 -39 -19 -6 -42 -12 -50 -13 -31 -4 -70
-17 -70 -24 0 -4 -6 -8 -12 -9 -7 0 -29 -3 -48 -7 -19 -4 -47 -8 -62 -10 -14
-2 -31 -6 -37 -9 -6 -4 -27 -9 -46 -11 -20 -3 -50 -12 -66 -21 -17 -8 -37 -13
-44 -10 -8 3 -25 -4 -38 -14 -22 -17 -43 -22 -148 -35 -14 -1 -36 -8 -48 -15
-13 -6 -29 -9 -37 -6 -8 3 -14 0 -14 -6 0 -6 -3 -9 -6 -5 -3 3 -28 -3 -55 -13
-27 -11 -49 -17 -49 -14 0 3 -7 -2 -16 -10 -8 -9 -21 -16 -27 -17 -7 -1 -30
-2 -52 -4 -22 -2 -52 -8 -66 -13 -15 -6 -29 -9 -32 -6 -2 2 -25 -4 -50 -15
-25 -11 -48 -17 -51 -14 -3 3 -29 -4 -58 -17 -29 -12 -73 -24 -98 -27 -64 -6
-82 -9 -108 -17 -13 -5 -34 -9 -45 -11 -32 -4 -207 -76 -207 -85 0 -4 -14 -14
-32 -21 -18 -7 -40 -21 -50 -31 -10 -10 -23 -18 -28 -18 -17 0 -70 -41 -122
-92 -26 -27 -52 -48 -58 -48 -5 0 -10 -4 -10 -9 0 -5 -17 -26 -39 -48 -21 -22
-47 -55 -57 -74 -10 -18 -23 -39 -29 -46 -25 -31 -31 -40 -50 -75 -11 -21 -23
-38 -27 -38 -5 0 -8 -9 -8 -20 0 -11 -4 -28 -10 -38 -77 -140 -111 -428 -74
-617 28 -145 79 -289 123 -350 17 -24 31 -46 31 -50 0 -3 11 -21 25 -39 14
-18 25 -38 25 -44 0 -15 219 -236 227 -228 8 8 43 -23 43 -38 0 -6 49 -61 110
-121 60 -60 110 -106 110 -101 0 5 11 -1 25 -14 14 -13 25 -28 25 -34 0 -6 47
-58 105 -116 58 -58 105 -101 105 -96 0 5 11 -1 25 -14 14 -13 25 -28 25 -34
0 -6 49 -61 110 -121 61 -60 110 -106 110 -101 0 5 11 -1 25 -14 14 -13 25
-28 25 -34 0 -6 47 -58 105 -116 58 -58 105 -101 105 -96 0 5 11 -1 25 -14 14
-13 25 -28 25 -34 0 -6 49 -61 110 -121 60 -60 110 -106 110 -101 0 5 11 -1
25 -14 14 -13 25 -28 25 -34 0 -6 47 -58 105 -116 58 -58 105 -101 105 -95 0
5 13 -4 30 -20 16 -15 27 -31 25 -35 -2 -3 45 -55 106 -116 60 -60 109 -105
109 -100 0 5 11 -1 25 -14 14 -13 25 -28 25 -34 0 -6 47 -58 105 -116 58 -58
105 -101 105 -95 0 5 13 -4 30 -20 16 -15 27 -31 25 -35 -2 -3 45 -55 106
-116 60 -60 109 -105 109 -100 0 5 11 -1 25 -14 14 -13 25 -28 25 -34 0 -6 47
-58 105 -116 58 -58 105 -101 105 -95 0 5 13 -4 30 -20 16 -15 27 -31 25 -35
-2 -3 45 -55 106 -116 60 -60 109 -105 109 -100 0 5 11 -1 25 -14 14 -13 25
-28 25 -34 0 -6 47 -58 105 -116 58 -58 105 -101 105 -95 0 5 13 -4 30 -20 16
-16 30 -34 30 -40 0 -5 47 -57 105 -115 58 -58 105 -101 105 -96 0 5 11 -1 25
-14 14 -13 25 -28 25 -34 0 -6 47 -58 105 -116 58 -58 105 -101 105 -95 0 5
13 -4 30 -20 16 -16 30 -34 30 -40 0 -5 47 -57 105 -115 58 -58 105 -101 105
-95 0 5 13 -4 30 -20 16 -15 27 -31 25 -35 -2 -3 43 -53 101 -111 57 -57 104
-100 104 -94 0 5 13 -4 30 -20 16 -16 30 -34 30 -40 0 -5 47 -57 105 -115 58
-58 105 -101 105 -95 0 5 13 -4 30 -20 16 -15 27 -31 25 -35 -2 -3 46 -56 107
-116 61 -60 107 -102 103 -94 -5 8 6 2 23 -14 18 -17 32 -35 32 -41 0 -5 47
-57 105 -115 58 -58 105 -101 105 -95 0 5 13 -4 30 -20 16 -15 27 -31 25 -35
-2 -3 46 -56 107 -116 61 -60 107 -102 103 -94 -5 8 6 2 23 -14 18 -17 32 -35
32 -41 0 -5 47 -57 105 -115 58 -58 105 -101 105 -95 0 5 13 -4 30 -20 16 -16
30 -34 30 -40 0 -5 47 -57 105 -115 58 -58 105 -101 105 -96 0 5 11 -1 25 -14
14 -13 25 -28 25 -34 0 -6 47 -58 105 -116 58 -58 105 -101 105 -95 0 5 13 -4
30 -20 16 -16 30 -34 30 -40 0 -5 47 -57 105 -115 58 -58 105 -101 105 -96 0
5 11 -1 25 -14 14 -13 25 -28 25 -34 0 -6 47 -58 105 -116 58 -58 105 -101
105 -95 0 5 14 -4 30 -20 16 -16 30 -34 30 -40 0 -5 47 -57 105 -115 58 -58
105 -101 105 -96 0 5 11 -1 25 -14 14 -13 25 -28 25 -34 0 -6 50 -61 111 -121
62 -61 108 -103 104 -95 -5 8 6 2 23 -14 18 -17 32 -35 32 -41 0 -5 47 -57
105 -115 58 -58 105 -101 105 -96 0 5 11 -1 25 -14 14 -13 25 -28 25 -34 0 -6
50 -61 111 -121 62 -61 108 -103 104 -95 -5 8 6 2 23 -14 18 -17 32 -35 32
-41 0 -5 47 -57 105 -115 58 -58 105 -101 105 -96 0 5 11 -1 25 -14 14 -13 25
-28 25 -34 0 -6 49 -61 110 -121 60 -60 110 -106 110 -101 0 5 11 -1 25 -14
14 -13 25 -28 25 -34 0 -6 47 -58 105 -116 58 -58 105 -101 105 -96 0 5 11 -1
25 -14 14 -13 25 -28 25 -34 0 -6 49 -61 110 -121 60 -60 110 -106 110 -101 0
5 11 -1 25 -14 14 -13 25 -28 25 -34 0 -6 47 -58 105 -116 58 -58 105 -101
105 -96 0 5 11 -1 25 -14 14 -13 25 -28 25 -34 0 -6 50 -61 110 -121 61 -60
110 -106 110 -101 0 5 11 -1 25 -14 14 -13 25 -28 25 -34 0 -6 47 -58 105
-116 58 -58 105 -101 105 -96 0 5 11 -1 25 -14 14 -13 25 -28 25 -34 0 -6 50
-61 110 -121 61 -60 110 -106 110 -101 0 5 11 -1 25 -14 14 -13 25 -28 25 -34
0 -6 47 -58 105 -116 58 -58 105 -101 105 -96 0 5 11 -1 25 -14 14 -13 25 -28
25 -34 0 -6 49 -61 110 -121 60 -60 110 -106 110 -101 0 5 11 -1 25 -14 14
-13 25 -28 25 -34 0 -6 47 -58 105 -116 58 -58 105 -101 105 -96 0 5 11 -1 25
-14 14 -13 25 -28 25 -34 0 -6 49 -61 110 -121 60 -60 110 -106 110 -101 0 5
11 -1 25 -14 14 -13 25 -28 25 -34 0 -6 47 -58 105 -116 58 -58 105 -101 105
-96 0 5 11 -1 25 -14 14 -13 25 -28 25 -34 0 -6 49 -61 110 -121 60 -60 110
-106 110 -101 0 5 11 -1 25 -14 14 -13 25 -28 25 -34 0 -6 47 -58 105 -116 58
-58 105 -101 105 -96 0 5 11 -1 25 -14 14 -13 25 -28 25 -34 0 -6 49 -61 110
-121 60 -60 110 -106 110 -101 0 5 11 -1 25 -14 14 -13 25 -28 25 -34 0 -6 47
-58 105 -116 58 -58 105 -101 105 -96 0 5 11 -1 25 -14 14 -13 25 -28 25 -34
0 -6 49 -61 110 -121 60 -60 110 -106 110 -101 0 5 11 -1 25 -14 14 -13 25
-28 25 -34 0 -6 47 -58 105 -116 58 -58 105 -101 105 -96 0 5 11 -1 25 -14 14
-13 25 -28 25 -34 0 -6 49 -61 110 -121 61 -60 110 -106 110 -101 0 5 11 -1
25 -14 14 -13 25 -28 25 -34 0 -6 47 -58 105 -116 58 -58 105 -101 105 -96 0
5 11 -1 25 -14 14 -13 25 -28 25 -34 0 -6 49 -61 110 -121 60 -60 110 -106
110 -101 0 5 11 -1 25 -14 14 -13 25 -28 25 -34 0 -6 47 -58 105 -116 58 -58
105 -101 105 -96 0 5 11 -1 25 -14 14 -13 25 -28 25 -34 0 -6 49 -61 110 -121
60 -60 110 -106 110 -101 0 4 18 -7 40 -24 22 -17 40 -29 40 -25 0 4 22 -10
50 -30 28 -20 50 -34 50 -30 0 3 13 -3 30 -15 16 -12 30 -19 30 -15 0 3 11 -2
25 -11 14 -9 25 -13 25 -10 0 4 9 2 21 -4 11 -6 29 -13 40 -16 10 -2 28 -6 38
-8 11 -3 30 -10 42 -16 17 -10 20 -9 14 1 -5 8 -4 10 3 5 46 -28 270 -35 392
-12 51 10 96 18 119 21 34 5 181 67 181 77 0 4 7 5 15 2 8 -4 15 -1 15 5 0 7
16 19 35 27 19 8 35 18 35 22 0 4 16 14 35 21 19 7 35 16 35 21 0 5 9 11 20
15 25 8 220 204 220 222 0 7 3 13 8 13 4 0 16 17 27 38 11 20 22 39 25 42 26
23 105 189 127 265 73 260 45 583 -70 787 -54 97 -67 119 -93 160 -15 24
-2904 2921 -6421 6438 -5810 5809 -6393 6395 -6377 6407 10 8 25 12 34 10 8
-1 20 4 26 12 6 8 27 16 45 18 19 2 48 6 64 9 17 3 39 6 51 8 12 1 35 8 53 16
17 7 34 10 37 7 3 -3 38 8 77 25 40 17 84 32 100 34 41 6 78 12 117 19 19 4
42 7 50 7 8 0 23 8 33 16 9 8 20 13 23 10 3 -4 33 5 67 19 34 14 73 27 87 29
51 6 86 13 111 23 15 5 29 8 32 5 2 -2 25 4 50 15 25 11 47 17 50 15 3 -3 26
4 52 16 25 12 60 23 76 25 16 3 42 7 59 9 29 4 60 13 149 42 24 8 47 12 51 9
4 -3 11 2 14 11 4 10 14 14 26 11 11 -3 20 -2 20 2 0 4 6 8 13 8 6 1 30 4 52
8 22 3 50 8 62 10 12 2 26 6 32 9 6 4 25 9 44 11 18 2 60 16 92 30 32 15 73
29 89 31 17 3 42 7 56 10 14 2 39 6 55 8 17 2 43 9 58 15 16 6 33 9 38 5 5 -3
9 -1 9 3 0 5 8 9 18 10 9 1 39 11 66 23 46 19 69 25 136 34 14 2 37 8 51 14
15 6 29 9 31 6 3 -2 22 3 44 12 21 9 51 18 67 19 15 1 33 7 40 12 18 15 64 27
142 36 17 2 40 9 53 16 12 6 26 10 31 7 5 -3 42 8 82 25 41 16 88 32 104 35
17 2 39 6 50 8 11 3 37 7 58 10 21 3 47 11 58 16 10 6 25 10 32 8 6 -1 44 10
82 26 39 16 79 30 90 32 11 1 38 5 60 9 22 4 51 8 65 10 14 2 42 11 61 19 20
8 39 13 41 10 3 -3 32 7 64 21 33 15 79 28 104 30 25 1 62 10 82 18 20 8 38
13 41 11 3 -3 22 2 43 11 21 8 44 13 51 11 7 -3 13 0 13 6 0 6 3 9 6 5 3 -3
25 3 49 13 24 10 52 19 62 19 24 0 91 16 124 29 15 6 29 8 32 6 3 -3 37 8 76
25 39 16 78 30 88 30 10 0 41 5 68 11 28 6 59 13 70 14 11 2 33 9 49 15 16 6
31 10 33 7 3 -2 37 9 76 25 40 17 86 32 102 35 17 2 41 6 55 9 14 2 39 6 56 9
17 3 44 10 60 16 16 7 41 13 56 15 15 2 41 11 58 20 17 9 48 19 68 22 20 3 44
6 52 7 22 4 98 25 149 42 24 7 47 11 52 8 5 -3 9 0 9 7 0 7 3 10 6 6 4 -3 23
1 43 9 36 15 77 25 119 28 12 0 22 5 22 10 0 5 3 7 6 3 4 -3 22 0 42 9 19 8
37 12 40 10 2 -3 21 2 40 10 20 8 42 12 48 10 7 -3 24 4 37 14 14 11 45 22 71
24 25 3 50 7 56 11 10 6 62 16 98 19 12 0 22 5 22 10 0 5 3 7 6 3 3 -3 28 3
55 13 27 11 49 16 49 12 0 -4 4 -1 9 7 5 8 23 16 40 18 67 7 87 11 112 21 15
6 29 9 31 6 3 -2 22 3 44 12 21 9 50 18 64 20 14 3 43 12 65 21 22 9 51 17 65
19 60 8 84 13 111 25 16 6 32 9 35 6 3 -3 24 3 47 14 23 10 54 19 69 19 15 0
33 6 40 13 7 6 20 13 28 14 8 1 35 7 60 12 25 5 48 7 52 5 5 -3 8 -1 8 3 0 5
8 9 18 10 28 3 94 20 140 36 23 9 42 13 42 10 0 -3 8 1 18 9 9 9 42 19 72 23
30 5 66 10 80 12 14 3 36 6 50 8 14 1 64 18 110 37 47 20 92 35 100 36 30 1
76 10 101 20 15 6 29 9 32 6 2 -3 22 2 43 10 22 9 50 17 64 20 14 2 43 11 65
21 38 15 67 22 125 30 14 2 38 8 54 14 16 7 31 10 33 7 3 -2 25 4 50 15 25 10
49 16 54 13 6 -3 22 2 37 13 15 10 34 19 42 21 8 1 31 5 50 8 61 9 84 13 130
23 25 5 48 7 52 5 5 -3 8 -1 8 4 0 12 49 34 61 27 5 -4 9 -1 9 5 0 6 5 8 11 4
6 -3 15 -1 19 5 4 7 20 14 36 17 82 12 148 27 185 42 15 6 29 9 31 6 3 -2 34
8 69 22 35 15 75 28 89 30 62 8 92 14 109 23 10 6 21 8 25 4 3 -3 24 2 46 12
22 10 43 15 46 12 3 -3 32 5 63 19 31 14 68 27 84 30 37 5 80 13 120 20 17 3
41 6 52 7 11 1 25 8 30 14 6 7 25 15 43 17 18 2 40 10 50 18 9 9 24 16 32 16
8 0 30 3 48 6 17 3 45 8 62 10 16 3 34 7 39 11 6 3 26 8 44 10 19 3 55 13 81
24 25 11 46 18 46 14 0 -3 7 0 15 7 8 6 27 14 42 16 15 2 40 6 56 9 15 3 39 7
55 9 15 2 44 11 64 19 20 8 38 13 41 11 3 -3 33 7 68 21 35 15 78 29 94 31 17
2 44 6 60 9 41 8 74 13 110 19 16 3 31 10 33 15 2 6 14 11 27 11 12 0 44 10
71 22 27 12 61 23 77 25 15 2 39 4 55 6 15 2 37 9 50 16 12 6 26 9 31 7 5 -3
25 1 45 9 20 9 41 13 46 10 6 -4 10 -2 10 2 0 5 10 9 22 10 11 1 24 6 27 11 7
10 58 23 142 36 20 3 48 10 62 15 14 5 27 8 29 5 3 -2 30 7 61 21 32 13 57 22
57 19 0 -4 7 -1 15 6 9 7 35 14 59 15 24 2 49 6 55 9 5 4 34 9 63 12 29 3 63
12 76 20 12 8 22 12 22 9 0 -2 26 7 58 21 31 14 78 27 103 29 26 1 56 8 68 15
12 6 27 9 34 7 7 -2 32 4 55 15 24 10 47 16 52 13 4 -3 34 7 65 21 32 14 64
23 72 20 8 -3 11 -2 8 4 -3 5 3 9 12 8 10 0 34 3 53 7 19 3 46 8 60 9 14 2 42
11 64 20 21 9 42 13 47 10 5 -3 9 -1 9 5 0 6 6 8 14 5 7 -3 20 1 27 9 8 7 21
14 29 15 8 1 38 6 65 12 59 13 80 17 117 23 15 2 52 14 83 27 30 12 58 20 61
17 3 -3 14 3 25 14 11 11 24 17 28 14 5 -2 31 0 57 6 27 5 67 11 89 13 23 2
84 22 137 44 53 22 99 38 101 35 5 -4 114 19 172 37 17 5 41 11 55 14 14 2 50
14 80 27 30 12 73 24 95 26 82 7 101 11 155 33 30 12 66 23 79 25 13 1 26 7
30 13 6 10 28 14 132 27 14 1 36 8 48 14 12 7 37 14 56 16 18 3 59 16 89 29
31 14 64 25 73 25 41 2 72 8 102 21 17 7 34 10 38 7 3 -4 14 -2 25 4 10 5 31
12 46 14 15 1 58 15 95 30 37 15 71 25 74 22 3 -4 13 -2 22 2 9 5 39 12 66 15
28 3 59 7 70 9 11 1 25 8 31 16 6 8 18 11 28 8 9 -4 16 -3 16 1 0 4 8 8 18 9
9 1 38 10 63 21 26 11 70 23 98 26 28 3 60 10 72 16 11 7 23 9 26 6 3 -2 28 4
57 16 28 11 59 22 70 24 10 2 23 7 30 13 6 5 34 12 61 15 28 3 75 12 105 21
30 9 66 17 80 19 14 2 48 13 75 25 28 13 62 24 78 27 15 2 42 6 60 10 47 8 89
14 115 17 12 1 26 7 30 12 4 6 16 12 27 12 11 1 43 11 70 23 47 20 73 27 135
34 14 2 37 8 51 14 15 6 29 9 31 6 3 -2 22 3 42 11 20 9 41 13 46 10 6 -4 10
-1 10 5 0 6 4 9 9 6 5 -3 34 5 64 19 30 13 63 24 74 24 35 1 78 9 107 20 16 7
31 10 33 7 3 -2 25 4 50 15 25 11 56 20 69 21 13 1 26 8 28 15 3 7 16 13 28
13 13 0 39 2 58 4 23 3 41 -1 53 -11 9 -9 17 -12 17 -8 0 5 11 -2 25 -15 14
-13 25 -28 25 -34 0 -6 47 -58 105 -116 58 -58 105 -101 105 -96 0 5 11 -1 25
-14 14 -13 25 -28 25 -34 0 -6 50 -61 110 -121 61 -60 110 -106 110 -101 0 5
11 -1 25 -14 14 -13 25 -28 25 -34 0 -6 47 -58 105 -116 58 -58 105 -101 105
-96 0 5 11 -1 25 -14 14 -13 25 -28 25 -34 0 -6 50 -61 110 -121 61 -60 110
-106 110 -101 0 5 11 -1 25 -14 14 -13 25 -28 25 -34 0 -15 204 -218 212 -211
3 3 16 -8 29 -26 36 -48 232 -249 238 -244 6 7 51 -36 51 -49 0 -15 204 -218
212 -211 3 3 16 -8 29 -26 36 -48 232 -249 238 -244 6 7 51 -36 51 -49 0 -6
47 -58 105 -116 58 -58 105 -101 105 -95 0 5 14 -4 30 -20 17 -16 30 -34 30
-40 0 -5 47 -57 105 -115 58 -58 105 -101 105 -96 0 5 11 -1 25 -14 14 -13 25
-28 25 -34 0 -6 47 -58 105 -116 58 -58 105 -101 105 -95 0 5 14 -4 30 -20 17
-16 30 -34 30 -40 0 -5 47 -57 105 -115 58 -58 105 -101 105 -96 0 5 11 -1 25
-14 14 -13 25 -28 25 -34 0 -6 47 -58 105 -116 58 -58 105 -101 105 -95 0 5
14 -4 30 -20 17 -16 30 -34 30 -40 0 -14 204 -217 212 -210 3 3 16 -8 29 -26
39 -52 222 -239 234 -239 14 0 55 -42 55 -56 0 -14 205 -216 212 -209 3 3 16
-8 29 -26 39 -52 222 -239 234 -239 14 0 55 -42 55 -56 0 -5 47 -56 105 -114
58 -58 105 -101 105 -95 0 5 14 -4 30 -20 17 -16 30 -34 30 -40 0 -5 47 -57
105 -115 58 -58 105 -101 105 -96 0 5 11 -1 25 -14 14 -13 25 -28 25 -34 0 -6
47 -58 105 -116 58 -58 105 -101 105 -95 0 5 13 -4 30 -20 17 -16 30 -34 30
-40 0 -5 47 -57 105 -115 58 -58 105 -101 105 -96 0 5 11 -1 25 -14 14 -13 25
-28 25 -34 0 -6 47 -58 105 -116 58 -58 105 -101 105 -95 0 5 14 -4 30 -20 17
-16 30 -34 30 -40 0 -5 47 -57 105 -115 58 -58 105 -101 105 -96 0 5 11 -1 25
-14 14 -13 25 -28 25 -34 0 -14 202 -216 216 -216 13 0 54 -42 54 -56 0 -5 47
-56 105 -114 58 -58 105 -101 105 -96 0 5 11 -1 25 -14 14 -13 25 -28 25 -34
0 -14 202 -216 216 -216 13 0 54 -42 54 -56 0 -5 47 -56 105 -114 58 -58 105
-101 105 -96 0 5 11 -1 25 -14 14 -13 25 -28 25 -34 0 -6 50 -61 110 -121 61
-60 110 -106 110 -101 0 5 11 -1 25 -14 14 -13 25 -28 25 -34 0 -6 47 -58 105
-116 58 -58 105 -101 105 -96 0 5 11 -1 25 -14 14 -13 25 -28 25 -34 0 -6 50
-61 110 -121 61 -60 110 -106 110 -101 0 5 11 -1 25 -14 14 -13 25 -28 25 -34
0 -6 47 -58 105 -116 58 -58 105 -101 105 -96 0 5 11 -1 25 -14 14 -13 25 -28
25 -34 0 -6 50 -61 110 -121 61 -60 110 -106 110 -101 0 5 11 -1 25 -14 14
-13 25 -28 25 -34 0 -6 47 -58 105 -116 58 -58 105 -101 105 -96 0 5 11 -1 25
-14 14 -13 25 -28 25 -34 0 -6 50 -61 110 -121 61 -60 110 -106 110 -101 0 5
11 -1 25 -14 14 -13 25 -28 25 -34 0 -6 47 -58 105 -116 58 -58 105 -101 105
-96 0 5 11 -1 25 -14 14 -13 25 -28 25 -34 0 -6 50 -61 110 -121 61 -60 110
-106 110 -101 0 5 11 -1 25 -14 14 -13 25 -28 25 -34 0 -6 47 -58 105 -116 58
-58 105 -101 105 -96 0 5 11 -1 25 -14 14 -13 25 -28 25 -34 0 -6 50 -61 110
-121 61 -60 110 -106 110 -101 0 5 11 -1 25 -14 14 -13 25 -28 25 -34 0 -6 47
-58 105 -116 58 -58 105 -101 105 -96 0 5 11 -1 25 -14 14 -13 25 -28 25 -34
0 -6 50 -61 110 -121 61 -60 110 -106 110 -101 0 5 11 -1 25 -14 14 -13 25
-28 25 -34 0 -6 47 -58 105 -116 58 -58 105 -101 105 -96 0 5 11 -1 25 -14 14
-13 25 -28 25 -34 0 -6 49 -61 110 -121 61 -60 110 -106 110 -101 0 5 11 -1
25 -14 14 -13 25 -28 25 -34 0 -6 47 -58 105 -116 58 -58 105 -101 105 -96 0
5 11 -1 25 -14 14 -13 25 -28 25 -34 0 -6 50 -61 110 -121 61 -60 110 -106
110 -101 0 5 11 -1 25 -14 14 -13 25 -28 25 -34 0 -6 47 -58 105 -116 58 -58
105 -101 105 -96 0 5 11 -1 25 -14 14 -13 25 -28 25 -34 0 -6 50 -61 110 -121
61 -60 110 -106 110 -101 0 5 11 -1 25 -14 14 -13 25 -28 25 -34 0 -6 47 -58
105 -116 58 -58 105 -101 105 -96 0 5 11 -1 25 -14 14 -13 25 -28 25 -34 0 -6
50 -61 110 -121 61 -60 110 -106 110 -101 0 5 11 -1 25 -14 14 -13 25 -28 25
-34 0 -6 47 -58 105 -116 58 -58 105 -101 105 -96 0 5 11 -1 25 -14 14 -13 25
-28 25 -34 0 -6 50 -61 110 -121 61 -60 110 -106 110 -101 0 5 11 -1 25 -14
14 -13 25 -28 25 -34 0 -6 47 -58 105 -116 58 -58 105 -101 105 -96 0 5 11 -1
25 -14 14 -13 25 -28 25 -34 0 -6 50 -61 110 -121 61 -60 110 -106 110 -101 0
4 18 -7 40 -24 22 -17 40 -29 40 -25 0 4 23 -10 50 -30 28 -20 50 -34 50 -30
0 3 13 -3 30 -15 17 -12 30 -19 30 -15 0 3 11 -2 24 -10 13 -9 34 -18 47 -21
29 -6 32 -7 89 -24 49 -14 61 -16 160 -25 112 -11 190 -8 290 10 43 8 74 14
104 19 44 7 210 77 219 93 4 7 15 13 22 13 8 0 23 8 33 18 10 10 32 24 50 31
18 7 32 17 32 22 0 4 9 10 19 14 29 9 213 195 236 239 11 20 23 36 27 36 5 0
8 4 8 10 0 5 17 38 38 72 75 124 122 270 138 428 4 41 15 80 58 227 9 28 16
64 16 79 0 31 19 103 32 120 10 13 52 177 63 244 4 25 15 68 25 95 9 28 25 77
35 110 9 33 21 74 26 91 5 17 9 45 9 63 0 18 12 63 26 99 36 94 42 112 49 152
4 19 10 49 15 65 5 17 14 59 20 95 6 36 17 72 24 80 12 14 48 152 62 235 4 22
14 63 24 90 45 131 61 194 81 310 7 39 16 73 20 76 12 7 58 178 69 249 8 57
13 75 36 126 14 33 42 139 70 271 9 46 21 83 25 83 3 0 9 12 12 28 3 15 14 61
25 102 11 41 26 106 33 145 6 38 18 76 26 83 7 7 13 21 13 31 0 10 6 37 14 62
23 73 34 120 47 196 7 40 15 73 20 73 8 0 41 119 69 254 11 54 24 104 29 110
5 6 12 27 16 46 4 19 11 40 14 45 8 10 20 64 42 185 7 36 17 71 23 79 11 14
53 162 62 216 10 66 28 140 35 145 7 5 42 135 74 280 10 41 21 80 25 85 4 6
11 26 15 45 4 19 11 40 15 45 8 11 13 33 36 164 8 46 21 96 29 110 16 28 54
156 61 206 9 60 28 140 34 145 9 7 45 142 77 288 9 45 21 82 25 82 4 0 8 8 8
18 0 11 8 44 19 74 10 30 26 95 35 144 9 49 23 103 31 119 20 43 55 171 65
235 10 67 20 112 30 125 14 20 44 130 77 283 9 45 21 82 25 82 4 0 8 7 8 16 0
9 11 53 24 98 14 44 30 115 37 156 7 41 18 82 24 90 7 8 15 29 18 45 3 17 13
55 22 85 9 30 23 91 32 135 8 44 21 92 29 107 8 14 14 35 14 45 0 10 4 23 8
29 9 9 19 50 48 192 9 45 21 82 25 82 5 0 9 8 9 18 0 9 11 51 24 92 12 41 29
113 36 160 7 47 19 90 25 95 7 6 14 24 17 40 3 17 13 55 22 85 24 81 46 181
46 212 0 16 4 28 9 28 5 0 14 19 21 43 30 107 53 196 62 242 6 28 14 59 19 70
20 51 59 198 70 270 7 44 18 85 24 90 7 6 14 24 17 40 3 17 13 55 22 85 24 81
46 181 46 212 0 16 4 28 8 28 9 0 48 122 58 180 3 19 10 47 16 61 5 15 13 51
17 80 5 30 22 90 38 134 16 44 36 116 43 160 7 44 19 91 25 105 7 14 18 43 24
65 5 22 16 58 23 80 7 22 13 47 14 55 1 8 6 33 13 55 6 22 11 52 11 67 0 15
10 51 23 80 13 29 29 80 36 113 7 33 17 72 23 86 5 15 13 51 17 80 5 30 20 86
34 124 27 73 57 202 57 245 0 14 7 36 16 48 8 12 13 22 9 22 -3 0 1 12 9 28
16 32 66 228 66 260 0 12 10 45 23 74 13 29 29 80 36 113 7 33 17 72 23 86 5
15 13 51 17 80 5 30 20 86 35 124 27 74 42 135 55 225 5 30 18 78 29 105 26
62 72 239 72 277 0 16 4 36 9 46 4 9 15 31 23 47 8 17 21 57 28 90 7 33 19 79
26 103 8 23 14 55 14 71 0 16 8 50 19 77 10 27 26 76 36 109 9 33 21 74 26 91
5 17 9 45 9 63 0 18 11 60 25 94 29 74 75 251 75 290 0 16 11 52 24 80 13 29
29 77 36 107 7 30 16 66 21 80 5 14 11 46 13 71 3 26 11 59 17 75 20 49 26 67
43 129 10 33 22 74 27 91 5 17 9 45 9 63 0 18 11 60 24 94 13 34 27 73 30 87
4 14 15 59 26 100 11 41 20 87 20 102 0 15 11 53 25 83 25 57 49 152 66 259 5
33 13 64 17 70 5 6 21 52 36 101 15 50 31 104 37 121 5 17 9 45 9 63 0 18 11
60 24 94 31 82 76 249 76 286 0 16 9 51 21 78 12 26 28 75 35 108 8 33 19 76
23 95 5 19 14 58 19 85 10 51 47 167 63 197 5 10 9 31 9 47 0 17 5 33 10 36 6
3 10 22 10 41 0 43 19 124 34 143 13 17 54 167 66 241 4 30 17 80 28 110 11
30 25 75 32 100 6 25 15 59 20 75 4 17 11 53 15 80 4 28 15 70 25 95 10 25 26
72 35 105 9 33 20 74 25 90 4 17 11 55 15 86 3 30 13 69 22 85 22 42 63 188
74 267 5 37 18 85 29 105 11 20 20 43 20 51 0 8 4 28 9 45 49 162 66 323 47
435 -8 42 -20 109 -27 149 -7 40 -16 75 -21 78 -4 3 -8 13 -8 23 0 26 -82 184
-130 251 -14 19 -32 48 -40 64 -15 29 -212 221 -227 221 -4 0 -22 10 -40 23
-17 12 -34 22 -38 22 -3 0 -26 14 -51 30 -24 17 -44 28 -44 25 0 -3 -16 6 -35
21 -19 14 -35 23 -35 20 0 -4 -9 -2 -21 4 -21 12 -39 17 -94 27 -16 3 -39 10
-49 15 -11 6 -36 12 -55 14 -20 2 -56 6 -81 9 -63 7 -178 7 -225 0 -22 -4 -53
-9 -70 -11 -16 -3 -41 -7 -55 -9 -14 -3 -39 -7 -56 -9 -17 -2 -39 -9 -50 -14
-10 -6 -40 -18 -66 -28 -26 -9 -62 -27 -80 -40 -17 -13 -37 -24 -43 -24 -6 0
-20 -7 -30 -15 -11 -8 -42 -30 -70 -47 -46 -30 -198 -178 -253 -245 -22 -28
-92 -141 -92 -150 0 -2 -7 -11 -15 -19 -8 -9 -15 -26 -15 -40 0 -13 -4 -24 -8
-24 -9 0 -32 -59 -32 -82 0 -9 -5 -18 -12 -20 -6 -2 -15 -33 -20 -69 -5 -35
-13 -86 -17 -114 -3 -27 -11 -57 -16 -65 -14 -22 -35 -82 -35 -102 0 -9 -4
-18 -9 -20 -5 -1 -11 -16 -14 -33 -3 -16 -10 -66 -17 -110 -7 -44 -23 -104
-36 -133 -13 -29 -24 -60 -24 -69 0 -9 -4 -30 -10 -47 -22 -73 -40 -155 -40
-184 0 -18 -4 -32 -8 -32 -4 0 -14 -21 -21 -47 -8 -27 -19 -54 -24 -61 -10
-13 -17 -47 -33 -167 -4 -27 -12 -59 -18 -70 -16 -31 -36 -88 -36 -107 0 -10
-4 -18 -8 -18 -8 0 -27 -85 -41 -185 -4 -27 -17 -72 -29 -99 -12 -27 -22 -56
-22 -64 0 -9 -4 -29 -10 -46 -20 -67 -40 -154 -40 -177 0 -14 -9 -44 -20 -67
-11 -22 -20 -47 -20 -55 0 -7 -5 -18 -12 -25 -7 -7 -15 -36 -19 -64 -22 -159
-29 -191 -48 -224 -12 -19 -21 -44 -21 -55 0 -10 -4 -19 -10 -19 -5 0 -10 -12
-10 -27 0 -16 -7 -53 -15 -83 -8 -30 -15 -67 -15 -82 0 -14 -10 -48 -21 -75
-12 -26 -26 -65 -30 -85 -5 -21 -13 -55 -18 -75 -5 -21 -15 -67 -21 -103 -7
-36 -21 -84 -31 -107 -11 -24 -19 -51 -19 -62 0 -11 -5 -21 -12 -23 -6 -2 -15
-29 -19 -59 -21 -153 -28 -188 -44 -220 -10 -19 -22 -50 -27 -69 -32 -124 -40
-159 -44 -195 -5 -37 -14 -66 -35 -107 -13 -26 -43 -147 -59 -243 -6 -33 -20
-79 -30 -102 -11 -24 -20 -51 -20 -62 0 -11 -5 -21 -12 -23 -6 -2 -15 -29 -19
-59 -21 -153 -28 -188 -44 -220 -10 -19 -22 -50 -26 -69 -4 -19 -17 -68 -28
-107 -12 -40 -21 -86 -21 -103 0 -17 -7 -47 -16 -68 -29 -69 -51 -146 -68
-232 -9 -47 -25 -107 -35 -135 -33 -91 -66 -216 -77 -290 -3 -27 -14 -63 -22
-80 -8 -16 -19 -46 -23 -65 -4 -19 -17 -68 -28 -107 -12 -40 -21 -87 -21 -104
0 -16 -9 -51 -19 -77 -18 -43 -32 -89 -60 -197 -5 -22 -13 -64 -17 -92 -4 -29
-10 -53 -15 -53 -5 0 -9 -8 -9 -18 0 -10 -3 -22 -7 -26 -13 -12 -46 -139 -63
-241 -6 -33 -19 -82 -30 -110 -10 -27 -24 -70 -30 -95 -7 -25 -19 -65 -26 -89
-8 -25 -14 -60 -14 -78 0 -19 -7 -50 -16 -71 -28 -64 -49 -143 -78 -287 -9
-44 -22 -93 -30 -110 -25 -55 -38 -99 -61 -217 -13 -64 -28 -125 -34 -135 -5
-10 -17 -45 -26 -78 -9 -33 -23 -80 -31 -105 -8 -25 -14 -60 -14 -78 0 -18 -7
-49 -16 -70 -26 -61 -53 -159 -73 -267 -7 -33 -27 -105 -45 -160 -34 -104 -47
-154 -67 -265 -7 -36 -18 -74 -26 -85 -7 -11 -13 -29 -13 -42 0 -12 -4 -24 -9
-27 -5 -3 -11 -20 -14 -38 -3 -18 -10 -51 -16 -73 -5 -22 -15 -65 -21 -95 -7
-30 -22 -84 -35 -120 -12 -36 -28 -92 -35 -125 -20 -98 -42 -189 -50 -205 -24
-50 -39 -108 -67 -255 -9 -49 -23 -96 -30 -103 -7 -7 -13 -22 -13 -32 0 -11
-4 -29 -9 -42 -15 -38 -38 -129 -51 -203 -7 -38 -16 -74 -20 -80 -14 -20 -40
-112 -60 -212 -12 -57 -32 -133 -46 -170 -28 -74 -36 -104 -61 -238 -9 -49
-21 -93 -26 -96 -4 -3 -12 -21 -17 -40 -5 -19 -17 -65 -28 -104 -11 -38 -25
-105 -33 -147 -7 -43 -16 -78 -20 -78 -4 0 -11 -14 -14 -32 -4 -18 -11 -39
-16 -48 -4 -8 -15 -55 -24 -105 -10 -49 -30 -130 -47 -180 -17 -49 -32 -99
-34 -109 -2 -10 -8 -33 -13 -50 -5 -17 -15 -65 -21 -106 -7 -41 -19 -82 -27
-91 -7 -8 -13 -22 -13 -29 0 -8 -4 -27 -9 -44 -5 -17 -16 -53 -24 -81 -8 -27
-21 -84 -28 -125 -7 -41 -15 -77 -18 -80 -15 -13 -54 -141 -62 -200 -9 -68
-28 -148 -39 -165 -6 -10 -17 -44 -45 -145 -7 -25 -18 -76 -25 -115 -6 -38
-18 -83 -25 -100 -36 -79 -58 -151 -66 -212 -16 -120 -21 -143 -30 -143 -5 0
-9 -8 -9 -19 0 -10 -11 -43 -24 -72 -12 -30 -26 -79 -29 -110 -7 -73 -29 -169
-39 -169 -5 0 -8 -8 -8 -17 0 -10 -9 -43 -19 -73 -10 -31 -26 -96 -35 -145 -9
-50 -23 -103 -30 -120 -36 -80 -57 -149 -71 -240 -9 -55 -20 -109 -24 -120
-48 -112 -61 -151 -61 -176 0 -40 -30 -183 -39 -189 -5 -3 -11 -16 -14 -30 -3
-14 -14 -56 -25 -95 -11 -38 -26 -108 -34 -154 -7 -47 -18 -86 -25 -88 -7 -3
-13 -13 -13 -23 0 -10 -8 -38 -19 -62 -10 -25 -21 -64 -25 -88 -13 -93 -30
-167 -46 -205 -10 -23 -20 -50 -22 -60 -1 -11 -7 -23 -12 -27 -6 -3 -13 -30
-17 -60 -10 -80 -32 -182 -39 -188 -4 -3 -9 -16 -13 -30 -3 -14 -13 -52 -22
-85 -10 -33 -25 -102 -34 -154 -10 -52 -23 -97 -29 -99 -7 -2 -12 -12 -12 -21
0 -10 -8 -40 -19 -67 -19 -52 -51 -204 -51 -248 0 -14 -4 -26 -8 -26 -8 0 -38
-76 -36 -90 0 -3 -6 -11 -13 -18 -7 -7 -13 -28 -13 -45 0 -18 -7 -66 -16 -107
-16 -73 -20 -85 -43 -143 -6 -15 -11 -40 -11 -54 l0 -27 -33 32 c-18 18 -37
32 -42 32 -13 0 -65 52 -65 65 0 14 -192 205 -206 205 -13 0 -54 43 -54 56 0
12 -192 204 -205 204 -13 0 -65 52 -65 65 0 14 -192 205 -206 205 -13 0 -54
43 -54 56 0 12 -192 204 -205 204 -13 0 -65 52 -65 65 0 14 -192 205 -206 205
-13 0 -54 43 -54 56 0 12 -192 204 -205 204 -13 0 -65 52 -65 65 0 14 -192
205 -206 205 -13 0 -54 43 -54 56 0 12 -192 204 -205 204 -13 0 -65 52 -65 65
0 14 -192 205 -206 205 -13 0 -54 43 -54 56 0 12 -192 204 -205 204 -13 0 -65
52 -65 65 0 14 -192 205 -206 205 -13 0 -54 43 -54 56 0 12 -192 204 -205 204
-13 0 -65 52 -65 65 0 14 -192 205 -207 205 -6 0 -22 14 -35 31 -36 49 -221
239 -227 234 -6 -7 -61 46 -61 60 0 14 -192 205 -207 205 -6 0 -22 14 -35 31
-36 49 -221 239 -227 234 -6 -7 -61 46 -61 60 0 14 -192 205 -207 205 -6 0
-22 14 -35 31 -36 49 -221 239 -227 234 -6 -7 -61 46 -61 60 0 14 -192 205
-207 205 -6 0 -22 14 -35 31 -36 49 -221 239 -227 234 -6 -7 -61 46 -61 60 0
14 -192 205 -207 205 -6 0 -22 14 -35 31 -39 54 -221 239 -229 234 -4 -3 -20
11 -36 31 -51 66 -226 243 -234 239 -4 -3 -18 9 -31 26 -39 54 -221 239 -229
234 -4 -3 -20 11 -36 31 -51 66 -226 243 -234 239 -4 -3 -18 9 -31 26 -39 54
-221 239 -229 234 -4 -3 -20 11 -36 31 -51 66 -226 243 -234 239 -4 -3 -18 9
-31 26 -39 54 -221 239 -229 234 -4 -3 -20 11 -36 31 -51 66 -226 243 -234
239 -4 -3 -18 9 -31 26 -39 54 -221 239 -229 234 -4 -3 -20 11 -36 31 -51 66
-226 243 -234 239 -4 -3 -18 9 -31 26 -39 54 -221 239 -229 234 -4 -3 -20 11
-36 31 -51 66 -226 243 -234 239 -4 -3 -18 9 -31 26 -39 54 -221 239 -229 234
-4 -3 -20 11 -36 31 -51 66 -226 243 -234 239 -4 -3 -18 9 -31 26 -39 54 -221
239 -229 234 -4 -3 -20 11 -36 31 -46 59 -226 244 -232 239 -6 -7 -61 46 -61
60 0 14 -194 207 -202 200 -3 -3 -18 11 -34 31 -47 59 -227 244 -233 239 -6
-7 -61 46 -61 60 0 14 -194 207 -202 200 -3 -3 -18 11 -34 31 -47 59 -227 244
-233 239 -6 -7 -61 46 -61 60 0 14 -194 207 -202 200 -3 -3 -18 11 -34 31 -47
59 -227 244 -233 239 -6 -7 -61 46 -61 60 0 14 -194 207 -202 200 -3 -3 -18
11 -34 31 -47 59 -227 244 -233 239 -6 -7 -61 46 -61 60 0 13 -194 207 -201
200 -3 -2 -20 11 -38 29 l-34 35 14 82 c7 45 18 87 24 93 7 6 14 23 17 36 3
14 13 51 22 83 9 32 23 93 31 135 9 42 19 86 24 97 5 11 16 37 25 58 9 21 16
45 16 54 0 9 4 30 10 47 5 17 17 67 26 111 9 44 20 89 24 100 25 61 49 152 70
264 10 51 22 96 27 100 6 3 13 20 17 36 4 17 11 46 16 65 5 19 20 85 34 145
13 61 32 128 41 150 21 47 29 77 56 205 11 52 24 104 29 115 5 11 14 38 21 60
6 22 17 58 24 80 7 22 18 76 25 120 7 44 18 89 24 100 7 11 17 38 23 60 31
110 43 156 54 220 7 39 22 90 32 115 11 25 23 61 28 80 4 19 15 67 24 105 9
39 19 89 22 113 3 23 10 42 14 42 5 0 9 7 9 15 0 8 4 23 9 33 15 30 39 124 52
202 6 41 17 84 23 95 7 11 18 40 25 65 7 25 16 59 21 75 5 17 17 71 26 120 9
50 26 110 37 135 11 25 24 61 28 80 4 19 15 67 24 105 9 39 18 86 21 105 3 19
14 53 24 75 10 22 21 56 25 75 4 19 11 40 15 45 4 6 10 30 13 55 4 25 10 68
13 95 4 28 12 55 19 60 6 6 17 30 24 55 7 25 16 59 21 75 5 17 16 71 26 120 9
50 27 114 40 143 13 29 24 61 24 72 0 10 4 29 9 42 12 30 39 158 38 179 0 9 8
34 18 55 30 63 56 167 71 279 4 28 16 68 27 90 11 22 24 56 29 75 26 103 48
207 48 232 0 15 4 28 8 28 16 0 76 212 86 305 3 22 12 54 21 72 26 52 60 179
74 279 5 33 17 76 26 95 10 19 22 50 26 69 4 19 17 71 28 115 11 44 20 94 21
112 0 17 4 33 8 35 18 7 72 208 87 321 3 26 10 47 14 47 4 0 13 19 20 43 7 23
17 56 23 72 14 42 27 101 36 165 4 30 17 80 29 110 12 30 29 82 38 115 8 33
20 74 25 91 6 17 10 46 10 65 0 19 9 53 19 75 10 23 22 57 26 75 4 19 10 39
14 44 7 9 23 88 37 183 3 23 9 42 13 42 4 0 13 19 20 43 7 23 17 56 23 72 14
42 27 101 36 165 4 30 17 80 29 110 12 30 26 73 32 95 5 22 17 63 25 92 9 28
16 66 16 83 0 17 9 52 19 78 18 43 32 89 60 197 5 22 13 64 17 93 4 28 10 52
13 52 4 0 12 21 20 48 7 26 19 63 26 82 14 37 21 68 35 165 5 32 16 73 24 90
8 16 22 57 31 90 9 33 22 81 30 106 8 26 15 61 15 78 0 18 9 53 19 79 27 65
61 191 76 282 7 38 40 148 60 195 6 17 17 62 24 100 16 91 25 127 52 200 24
66 45 150 59 235 5 30 21 87 36 125 27 71 34 95 53 200 11 55 35 140 66 225
18 51 35 126 35 156 0 34 20 103 37 129 7 11 13 29 13 41 0 11 3 24 7 28 9 8
29 93 43 177 5 30 22 91 38 135 16 43 35 106 42 139 20 98 42 189 50 205 24
50 40 109 67 255 9 50 21 93 26 96 4 3 12 21 17 40 5 19 16 61 25 94 9 33 20
83 25 110 15 93 23 125 29 125 11 0 39 95 61 207 12 57 32 133 46 170 14 38
27 78 29 90 2 12 8 37 13 55 6 18 16 67 23 108 7 41 19 81 26 88 7 7 13 21 13
30 0 16 6 40 34 127 9 28 16 62 16 77 0 31 21 120 31 128 10 9 53 165 64 240
4 24 20 81 35 125 35 101 56 181 72 270 6 39 17 79 23 90 7 11 17 40 24 65 7
25 19 65 27 90 8 25 14 56 14 70 0 36 23 130 32 130 5 0 8 9 8 20 0 10 6 34
14 52 8 18 19 56 24 83 28 136 46 210 52 215 4 3 10 16 13 30 3 14 14 59 26
100 11 41 25 102 31 135 7 33 17 71 24 85 7 14 18 45 25 70 7 25 19 65 27 90
8 25 14 58 14 74 0 28 14 90 30 131 30 78 39 106 48 150 30 142 46 210 52 215
4 3 10 16 13 30 3 14 14 57 25 95 10 39 25 104 32 145 7 41 18 82 25 90 6 8
17 35 24 60 7 25 16 59 21 75 5 17 11 46 15 65 12 65 27 135 35 155 4 11 12
32 18 46 16 39 37 132 67 288 2 14 8 27 13 30 5 3 11 17 15 31 3 14 13 52 22
85 18 62 30 117 41 195 3 25 12 50 19 55 11 9 17 27 31 93 3 15 9 36 14 47 5
11 16 58 25 105 8 47 19 94 24 105 27 63 35 89 58 194 66 289 12 611 -135 818
-12 17 -22 34 -22 38 0 15 -93 125 -156 185 -77 73 -154 135 -154 125 0 -3
-16 6 -35 21 -19 14 -35 23 -35 20 0 -4 -21 8 -47 26 -27 18 -50 32 -53 31 -3
0 -17 8 -32 19 -16 11 -28 17 -28 15 0 -4 -34 2 -92 18 -10 3 -27 7 -37 9 -11
3 -30 10 -42 16 -17 10 -20 9 -14 -1 5 -8 4 -10 -4 -5 -6 4 -26 10 -44 12 -39
6 -266 12 -271 7z"/>
</g>
</svg>
